<?xml version="1.0" standalone="no"?>
<!DOCTYPE svg PUBLIC "-//W3C//DTD SVG 1.1//EN" "http://www.w3.org/Graphics/SVG/1.1/DTD/svg11.dtd" >
<!--
2013-9-30: Created.
-->
<svg>
<metadata>
Created by iconfont
</metadata>
<defs>

<font id="iconfont" horiz-adv-x="1024" >
  <font-face
    font-family="iconfont"
    font-weight="500"
    font-stretch="normal"
    units-per-em="1024"
    ascent="896"
    descent="-128"
  />
    <missing-glyph />
    
    <glyph glyph-name="x" unicode="x" horiz-adv-x="1001"
d="M281 543q-27 -1 -53 -1h-83q-18 0 -36.5 -6t-32.5 -18.5t-23 -32t-9 -45.5v-76h912v41q0 16 -0.5 30t-0.5 18q0 13 -5 29t-17 29.5t-31.5 22.5t-49.5 9h-133v-97h-438v97zM955 310v-52q0 -23 0.5 -52t0.5 -58t-10.5 -47.5t-26 -30t-33 -16t-31.5 -4.5q-14 -1 -29.5 -0.5
t-29.5 0.5h-32l-45 128h-439l-44 -128h-29h-34q-20 0 -45 1q-25 0 -41 9.5t-25.5 23t-13.5 29.5t-4 30v167h911zM163 247q-12 0 -21 -8.5t-9 -21.5t9 -21.5t21 -8.5q13 0 22 8.5t9 21.5t-9 21.5t-22 8.5zM316 123q-8 -26 -14 -48q-5 -19 -10.5 -37t-7.5 -25t-3 -15t1 -14.5
t9.5 -10.5t21.5 -4h37h67h81h80h64h36q23 0 34 12t2 38q-5 13 -9.5 30.5t-9.5 34.5q-5 19 -11 39h-368zM336 498v228q0 11 2.5 23t10 21.5t20.5 15.5t34 6h188q31 0 51.5 -14.5t20.5 -52.5v-227h-327z" />
    

    
    <glyph glyph-name="chenggong1" unicode="&#58890;" d="M1008.799 744.87c-21.324 21.467-55.908 21.467-77.234 0l-553.724-557.659-280.656 282.637c-21.326 21.468-55.909 21.468-77.236 0-21.326-21.468-21.326-56.287 0-77.778l347.564-350.017c3.734-3.761 6.688-5.668 9.138-6.146 0.132-0.03 0.267-0.048 0.402-0.067 0.046-0.005 0.091-0.015 0.135-0.02 0.146-0.017 0.294-0.025 0.445-0.029 0.069-0.003 0.141-0.01 0.209-0.01s0.14 0.005 0.209 0.01c0.15 0.004 0.3 0.012 0.445 0.029 0.045 0.005 0.091 0.015 0.135 0.02 0.135 0.019 0.271 0.037 0.402 0.067 2.451 0.478 5.405 2.384 9.138 6.146l620.625 625.014c21.326 21.492 21.326 56.313 0 77.805z"  horiz-adv-x="1024" />

    
    <glyph glyph-name="iconfontroundcheck" unicode="&#58913;" d="M512-125.72444444444443C230.92337777777777-125.72444444444443 2.27555555555557 102.92337777777789 2.27555555555557 384S230.92337777777777 893.7244444444444 512 893.7244444444444s509.72444444444443-228.64782222222223 509.72444444444443-509.72444444444443S793.0766222222221-125.72444444444443 512-125.72444444444443zM512 820.5789866666667C271.2644266666666 820.5789866666667 75.42101333333335 624.7355733333334 75.42101333333335 384c0-240.69916444444442 195.84341333333333-436.57898666666665 436.57898666666665-436.57898666666665 240.69916444444442 0 436.57898666666665 195.8798222222222 436.57898666666665 436.57898666666665C948.5789866666667 624.7355733333334 752.6991644444445 820.5789866666667 512 820.5789866666667zM756.5949155555555 519.1862044444445c-14.272284444444445 14.163057777777777-37.35552 14.017422222222223-51.482168888888886-0.29127111111111115l-265.4208-268.33351111111114-117.49148444444444 120.73187555555555c-14.05383111111111 14.454328888888888-37.100657777777776 14.70919111111111-51.482168888888886 0.7281777777777777-14.41792-14.017422222222223-14.7456-37.100657777777776-0.7281777777777777-51.482168888888886l143.37820444444444-147.34677333333332c0.07281777777777779-0.10922666666666667 0.21845333333333333-0.10922666666666667 0.29127111111111115-0.21845333333333333 0.07281777777777779-0.07281777777777779 0.10922666666666667-0.21845333333333333 0.18204444444444443-0.29127111111111115 2.29376-2.2573511111111113 5.133653333333332-3.640888888888889 7.827911111111111-5.170062222222221 1.4199466666666667-0.7645866666666666 2.5486222222222223-2.0388977777777777 4.0049777777777775-2.6214399999999998 4.405475555555555-1.8204444444444445 9.102222222222222-2.7306666666666666 13.76256-2.7306666666666666 4.623928888888889 0 9.247857777777778 0.9102222222222223 13.616924444444443 2.6578488888888887 1.4199466666666667 0.5825422222222223 2.5122133333333334 1.7476266666666667 3.8593422222222222 2.4758044444444445 2.7306666666666666 1.5291733333333333 5.5705599999999995 2.8763022222222223 7.900728888888889 5.170062222222221 0.07281777777777779 0.07281777777777779 0.10922666666666667 0.21845333333333333 0.21845333333333333 0.29127111111111115 0.07281777777777779 0.10922666666666667 0.18204444444444443 0.14563555555555557 0.29127111111111115 0.21845333333333333l291.5259733333333 294.69354666666663C771.0128355555556 482.0127288888889 770.8671999999999 505.05955555555556 756.5949155555555 519.1862044444445z"  horiz-adv-x="1024" />

    
    <glyph glyph-name="weibiaoti1" unicode="&#58947;" d="M992 461.41935469L589.41935469 461.41935469 589.41935469 864 434.58064531 864 434.58064531 461.41935469 32 461.41935469 32 306.58064531 434.58064531 306.58064531 434.58064531-96 589.41935469-96 589.41935469 306.58064531 992 306.58064531Z"  horiz-adv-x="1024" />

    
    <glyph glyph-name="msnui-forbid" unicode="&#59071;" d="M512.893 829.569q91.765 0 172.824-34.667t141.725-95.333 95.333-141.725 34.667-172.824-34.667-172.824-95.333-141.725-141.725-95.333-172.824-34.667-173.333 34.667-141.725 95.333-95.333 141.725-35.176 172.824 35.176 172.824 95.333 141.725 141.725 95.333 173.333 34.667zM707.638 321.804q29.569 0 49.451 18.353t19.882 46.902q0 29.569-19.882 45.882t-49.451 16.314h-390.51q-29.569 0-49.451-16.314t-19.882-45.882q0-28.549 19.882-46.902t49.451-18.353h390.51z"  horiz-adv-x="1024" />

    
    <glyph glyph-name="dingdan" unicode="&#58914;" d="M843.52 835.84h-60.16c-16.64 0-35.84-10.24-35.84-26.879999999999995s19.2-33.28 35.84-33.28h60.16c35.84 0 60.16-24.32 60.16-60.16v-692.48c0-35.84-24.32-60.16-60.16-60.16h-647.6800000000001c-35.84 0-75.52 24.32-75.52 60.16v692.48c0 35.84 24.32 60.16 60.16 60.16h75.52c16.64 0 23.040000000000003 16.64 23.040000000000003 33.28s-6.4 26.879999999999995-23.040000000000003 26.879999999999995h-75.52c-84.48 0-120.32-52.480000000000004-120.32-121.59999999999998v-684.8c0-74.24 44.8-126.72 126.72-126.72h650.24c81.92 0 126.72 43.519999999999996 126.72 126.72v684.8c0 69.11999999999999-42.24 121.59999999999998-120.32 121.59999999999998zM256 564.48c0-16.64 14.079999999999998-30.72 30.72-30.72h451.84000000000003c16.64 0 30.72 14.079999999999998 30.72 30.72 0 16.64-14.079999999999998 30.72-30.72 30.72h-451.84000000000003c-16.64 0-30.72-14.079999999999998-30.72-30.72zM737.2800000000002 428.8h-450.55999999999995c-16.64 0-30.72-14.079999999999998-30.72-30.72s14.079999999999998-30.72 30.72-30.72h451.84000000000003c16.64 0 30.72 14.079999999999998 30.72 30.72-1.28 17.92-15.36 30.72-32 30.72zM737.2800000000002 248.31999999999994h-450.55999999999995c-16.64 0-30.72-14.079999999999998-30.72-30.72s14.079999999999998-30.72 30.72-30.72h451.84000000000003c16.64 0 30.72 14.079999999999998 30.72 30.72-1.28 17.92-15.36 30.72-32 30.72zM408.32000000000005 760.3199999999999h209.92000000000002c24.32 0 44.8 24.32 44.8 52.480000000000004s-20.48 52.480000000000004-46.080000000000005 52.480000000000004h-208.64c-25.6 0-46.080000000000005-24.32-46.080000000000005-52.480000000000004s20.48-52.480000000000004 46.080000000000005-52.480000000000004z"  horiz-adv-x="1024" />

    
    <glyph glyph-name="gengduo2" unicode="&#58895;" d="M95.979982 384m-95.958492 0a93.773 93.773 0 1 1 191.916984 0 93.773 93.773 0 1 1-191.916984 0ZM512 384m-95.958492 0a93.773 93.773 0 1 1 191.916984 0 93.773 93.773 0 1 1-191.916984 0ZM927.412175 384m-95.958492 0a93.773 93.773 0 1 1 191.916984 0 93.773 93.773 0 1 1-191.916984 0Z"  horiz-adv-x="1024" />

    
    <glyph glyph-name="androidcamera" unicode="&#59097;" d="M512 332.79999999999995m-134.4 0a67.2 67.2 0 1 1 268.8 0 67.2 67.2 0 1 1-268.8 0ZM904.53333333 725.33333333l-187.73333333 0-68.26666667 68.26666667L375.46666667 793.6l-68.26666667-68.26666667L119.46666667 725.33333333c-47.1296 0-85.33333333-38.20373333-85.33333334-85.33333333l0-580.26666667c0-47.1296 38.20373333-85.33333333 85.33333334-85.33333333l785.06666666 0c47.1296 0 85.33333333 38.20373333 85.33333334 85.33333333L989.86666667 640C989.86666667 687.1296 951.66293333 725.33333333 904.53333333 725.33333333zM512 93.86666666999997c-131.95733333 0-238.93333333 106.976-238.93333333 238.93333333s106.976 238.93333333 238.93333333 238.93333333 238.93333333-106.976 238.93333333-238.93333333S643.95733333 93.86666666999997 512 93.86666666999997z"  horiz-adv-x="1024" />

    
    <glyph glyph-name="dizhi" unicode="&#58902;" d="M512 888.0224318145208c-222.48310325733755 0-402.8358554202065-180.352753733959-402.8358554202065-402.8358554202065S424.8568739705086-77.79153253094319 424.8568739705086-77.79153253094319c48.129819072281826-56.17379988820133 126.8937973711305-56.47544916879831 174.55438370545366 0.30164928059698215 0 0 315.4245977442443 340.19335481623324 315.4245977442443 562.6764580735708S734.4831032573377 888.0224318145208 512 888.0224318145208zM512 311.70472241692346c-102.92943838073357 0-186.3522217117723 83.42278490212873-186.3522217117723 186.3522217117723s83.42278490212873 186.3522217117723 186.3522217117723 186.3522217117723 186.3522217117723-83.42278490212873 186.3522217117723-186.3522217117723S614.9294383807336 311.70472241692346 512 311.70472241692346z"  horiz-adv-x="1024" />

    
    <glyph glyph-name="caigoushangpin" unicode="&#58896;" d="M566.498855 727.972628l103.534277-195.750991 105.957218 0L649.261686 771.820308l-0.171717-0.086646c-7.687877 15.375754-23.396037 26.033231-41.739815 26.033231-25.86624 0-46.826732-20.97152-46.826732-46.861391 0-8.333785 2.359926-16.050018 6.175508-22.8352L566.498855 727.972628zM461.003225 727.972628l-0.269391 0.14336c3.801403 6.769428 6.153452 14.473058 6.153452 22.791089 0 25.891446-20.960492 46.861391-46.818855 46.861391-18.331175 0-34.03776-10.643298-41.722486-26.004874l-0.097674 0.058289-126.723938-239.598671 105.946191 0L461.003225 727.972628zM1013.092037 439.001403c-0.015754 1.161058-0.072468 2.309514-0.171717 3.456394-0.04096 0.645908-0.113428 1.305994-0.200074 1.950326-0.070892 0.630154-0.171717 1.247705-0.272542 1.877858-3.413858 20.97152-20.711582 37.265723-42.171471 39.072689L61.129649 485.358671c-25.858363 0-46.818855-20.97152-46.818855-46.861391 0-25.875692 20.960492-46.861391 46.818855-46.861391L102.6048 391.635889l100.378782-401.871163 0.135483 0.031508c5.085342-20.382326 23.351926-35.531225 45.279705-35.531225l0.007877 0c0.08192 0 0.162265 0.015754 0.244185 0.015754l0-0.015754 530.365834 0c21.932505 0 40.192788 15.147323 45.284431 35.531225l0.127606-0.031508 100.378782 401.871163 41.483028 0c25.847335 0 46.818855 20.985698 46.818855 46.861391l0 0.215828C1013.107791 438.813932 1013.092037 438.900578 1013.092037 439.001403zM373.251151 94.84918200000004c0-25.875692-20.963643-46.859815-46.81728-46.859815-25.858363 0-46.818855 20.984123-46.818855 46.859815L279.615015 344.777649c0 25.889871 20.960492 46.861391 46.818855 46.861391 25.855212 0 46.81728-20.97152 46.81728-46.861391L373.251151 94.84918200000004zM560.523422 94.84918200000004c0-25.875692-20.958917-46.859815-46.818855-46.859815-25.858363 0-46.81728 20.984123-46.81728 46.859815L466.887286 344.777649c0 25.889871 20.958917 46.861391 46.81728 46.861391 25.859938 0 46.818855-20.97152 46.818855-46.861391L560.523422 94.84918200000004zM747.805145 94.84918200000004c0-25.875692-20.957342-46.859815-46.818855-46.859815-25.863089 0-46.818855 20.984123-46.818855 46.859815L654.167434 344.777649c0 25.889871 20.955766 46.861391 46.818855 46.861391 25.861514 0 46.818855-20.97152 46.818855-46.861391L747.805145 94.84918200000004z"  horiz-adv-x="1024" />

    
    <glyph glyph-name="fenxiang" unicode="&#58954;" d="M781.93777778 190.29219554999997c19.71541333 0 38.11555555-3.60903111 55.18222222-10.80888889 17.06780445-7.21692445 32.03527111-17.26236445 44.94222222-30.15111111 12.88874667-12.90695111 22.93304889-27.87555555 30.15111112-44.94222222 7.20099555-17.06780445 10.80888889-35.46680889 10.80888888-55.18222222 0-19.73361778-3.60903111-38.11555555-10.80888888-55.18222223-7.21692445-17.06780445-17.26236445-32.05347555-30.15111112-44.94222222-12.90695111-12.90695111-27.87555555-22.95125333-44.94222222-30.15111111-17.06780445-7.21692445-35.46680889-10.80888889-55.18222222-10.80888889-19.73361778 0-38.11555555 3.59082667-55.18222222 10.80888889-17.06780445 7.20099555-32.05347555 17.24416-44.94222222 30.15111111-12.90695111 12.88874667-22.95125333 27.87555555-30.15111112 44.94222222-7.21692445 17.06780445-10.80888889 35.44860445-10.80888888 55.18222223 0 3.02193778 0 5.86638222 0 8.53333333 0 2.64988445 0.37432889 5.12 1.13891555 7.39555556 0 3.02193778 0.17749333 5.86638222 0.56888889 8.53333333 0.37432889 2.64988445 0.94208 5.12 1.70666667 7.39555555l-345.88444445 201.38780445c-6.82666667-6.08028445-13.84903111-11.57347555-21.04888888-16.49777778-7.21692445-4.94136889-14.98680889-8.92472889-23.32444445-11.94666667-8.35584-3.80472889-17.06780445-6.45233778-26.17002667-7.96558222-9.10222222-1.52917333-18.59470222-2.27555555-28.44558222-2.27555555-19.73361778 0-38.50695111 3.78652445-56.32 11.37777777-17.83011555 7.57304889-33.19125333 17.81418667-46.08 30.72113778-13.65333333 13.65333333-24.28472889 29.19196445-31.85777778 46.65002667-7.59125333 17.43985778-11.37777778 36.40888889-11.37777778 56.88888889 0 19.71541333 3.78652445 38.48874667 11.37777778 56.32 7.57304889 17.81418667 18.20444445 33.17304889 31.85777778 46.08 12.88874667 13.65333333 28.24874667 24.26652445 46.08 31.85777778 17.81418667 7.57304889 36.58638222 11.37777778 56.32 11.37777778 9.84860445 0 19.34336-0.96028445 28.44558222-2.84444445 9.10222222-1.90122667 17.81418667-4.74680889 26.17002667-8.53333333 8.33763555-3.04014222 16.10638222-7.02236445 23.32444445-11.94666667 7.20099555-4.94136889 14.22222222-10.43569778 21.04888888-16.49777778l342.47224889 200.24888889c-0.76458667 2.27555555-1.33347555 4.92544-1.70666667 7.96558222-0.39025778 3.02193778-0.96028445 5.69002667-1.70666666 7.96558222 0 3.02193778-0.19569778 6.06208-0.56888889 9.10222223-0.39025778 3.02193778-0.56888889 6.06208-0.56888889 9.10222222 0 19.71541333 3.78652445 38.48874667 11.37777778 56.32 7.57304889 17.81418667 18.20444445 33.17304889 31.85777778 46.08 12.88874667 12.88874667 28.24874667 23.32444445 46.08 31.28888889 17.81418667 7.96558222 36.58638222 11.94666667 56.32 11.94666666 19.71541333 0 38.48874667-3.98222222 56.32-11.94666666 17.81418667-7.96558222 33.17304889-18.40014222 46.08-31.28888889 13.65333333-12.90695111 24.26652445-28.26695111 31.85777778-46.08 7.57304889-17.83011555 11.37777778-36.60458667 11.37777777-56.32 0-20.48-3.80472889-39.64472889-11.37777777-57.45777778-7.59125333-17.83011555-18.20444445-33.19125333-31.85777778-46.08-12.90695111-12.90695111-28.26695111-23.14581333-46.08-30.72113777-17.83011555-7.59125333-36.60458667-11.37777778-56.32-11.37777778-9.86680889 0-19.34336 0.74638222-28.44558222 2.27555555-9.10222222 1.51096889-17.83011555 4.16085333-26.17002667 7.96558223-8.35584 3.02193778-16.12458667 7.00416-23.32444445 11.94666666-7.21692445 4.92544-14.22222222 10.41749333-21.04888888 16.49777778l-342.46997334-199.11224889c0.74638222-3.04014222 1.31527111-5.88458667 1.70666667-8.53333333 0.37432889-2.66581333 0.94208-5.51139555 1.70666667-8.53333334 0-3.04014222 0.17749333-5.88458667 0.56888888-8.53333333 0.37432889-2.66581333 0.56888889-5.51139555 0.56888889-8.53333333 0-3.04014222-0.19569778-6.08028445-0.56888889-9.10222222-0.39025778-3.04014222-0.56888889-6.08028445-0.56888888-9.10222223-0.76458667-2.27555555-1.33347555-4.94136889-1.70666667-7.96558222-0.39025778-3.04014222-0.96028445-5.69002667-1.70666667-7.96558222l345.88444444-201.38780445c6.06208 5.29749333 12.88874667 10.24113778 20.48 14.79224889 7.57304889 4.55111111 15.16430222 8.71196445 22.75555556 12.51669333 8.33763555 3.02193778 16.87096889 5.29749333 25.6 6.82666667 8.71196445 1.50983111 17.63555555 2.27441778 26.73777778 2.27441778z"  horiz-adv-x="1024" />

    
    <glyph glyph-name="3" unicode="&#58891;" d="M519.40693333-81.06666666000001c-262.48533333 0-476.09173333 213.6064-476.09173333 476.09173333s213.6064 476.09173333 476.09173333 476.09173333 476.09173333-213.6064 476.09173333-476.09173333C995.56693333 132.53973334 781.96053333-81.06666666000001 519.40693333-81.06666666000001M519.40693333 834.52586667c-242.34666667 0-439.5008-197.15413333-439.5008-439.5008 0-242.2784 197.15413333-439.5008 439.5008-439.5008s439.5008 197.15413333 439.5008 439.5008S761.7536 834.52586667 519.40693333 834.52586667M366.05351893 210.95860267l-30.6523136 30.6523136 337.46507733 337.46507733 30.6523136-30.6523136-337.46507733-337.46507733ZM703.459744 241.63751893999995l-30.6523136-30.6523136-337.46507734 337.46507733 30.6523136 30.6523136 337.46507734-337.46507733Z"  horiz-adv-x="1024" />

    
    <glyph glyph-name="xiala" unicode="&#58919;" d="M511.85 49.943733329999986L32 689.74293333l959.7 0L511.85 49.943733329999986z"  horiz-adv-x="1024" />

    
    <glyph glyph-name="peisongfangshi" unicode="&#59042;" d="M111.8259689244444 874.7724856888889c-60.28486883555556 0-109.35874104888887-51.10556671999999-109.35874104888887-113.89832760888889l0-716.8669422933333c0-20.885125119999998 16.318759822222223-37.76507448888889 36.479692799999995-37.76507448888889s36.479692799999995 16.879949368888887 36.479692799999995 37.76507448888889L75.42661233777773 760.8741580799999c0 21.162226346666667 16.34088049777778 38.37982264888889 36.42497024 38.37982264888889l529.0521793422222 0c9.877879466666666 0 17.946444231111112-8.341010204444444 17.946444231111112-18.59146296888889l0-132.47465585777778c0-1.88266496 0.7532987733333333-3.495213511111111 1.040880071111111-5.359249635555555 0.36442453333333336-2.676714382222222 0.62639104-5.309185137777777 1.5473481955555557-7.8787845688888885 0.8336349866666666-2.300646968888889 2.1446314666666666-4.190297884444444 3.3752917333333334-6.240621226666666 1.2341532444444443-2.05381632 2.305303893333333-4.1693400177777775 3.902716586666666-5.971668764444444 1.7511003022222222-1.9699871288888888 3.899223608888889-3.3648127999999997 6.05084103111111-4.900518115555555 1.4600260266666667-1.0630018844444444 2.509056-2.5672704 4.157697137777777-3.389262506666667L918.2039153777778 489.9345499022222c20.44385735111111-15.79482680888889 30.814233031111108-38.78033976888889 30.814233031111108-68.31268408888887l0-379.97001841777785c0-20.873482239999998 16.34088049777778-37.73247374222222 36.45757098666666-37.73247374222222 20.14230414222222 0 36.479692799999995 16.876456391111113 36.479692799999995 37.73247374222222L1021.9554110577777 421.62070186666665c0 54.93260515555556-22.680467911111112 101.64994389333333-63.81617607111111 131.59444821333332-1.47050496 1.0699867022222223-2.993402311111111 1.9990948977777778-4.554722417777778 2.8467017955555556L731.7432263111111 671.5121846044444l0 109.15033201777777c0 51.89612316444445-40.768955733333335 94.10996906666668-90.86158620444445 94.10996906666668L111.8259689244444 874.7724856888889 111.8259689244444 874.7724856888889zM296.28756309333335-32.705856853333216c-42.1160448 0-76.35912704 35.49237020444444-76.35912704 79.15227022222221 0 43.65640704 34.27684579555556 79.15227022222221 76.35912704 79.15227022222221 42.159123342222216 0 76.43597027555556-35.49586318222222 76.43597027555556-79.15227022222221C372.72353336888887 2.7865144888888835 338.42223672888895-32.705856853333216 296.28756309333335-32.705856853333216L296.28756309333335-32.705856853333216zM727.4842350933334-32.76407125333321c-42.167274382222224 0-76.44295623111111 35.58318535111111-76.44295623111111 79.3525293511111 0 43.65175011555556 34.27684579555556 79.15227022222221 76.44295623111111 79.15227022222221 42.18124515555555 0 76.46507804444444-35.529627875555555 76.46507804444444-79.15227022222221C803.9493131377778 2.7865144888888835 769.6433595733333-32.76407125333321 727.4842350933334-32.76407125333321L727.4842350933334-32.76407125333321zM296.28756309333335 201.0880830577778c-82.3086739911111 0-149.29639082666665-69.35822108444444-149.29639082666665-154.66728334222222 0-85.29159850666666 66.98771569777779-154.67426929777778 149.29639082666665-154.67426929777778 68.87038065777777 0 126.37607822222223 48.72109056 143.60880924444444 114.4665042488889l144.0826766222222 0c17.254852835555553-65.74657763555555 74.76520732444445-114.52471864888889 143.5552517688889-114.52471864888889 82.38551836444444 0 149.39535587555554 69.47115690666666 149.39535587555554 154.86404949333334 0 85.29159850666666-67.00983751111112 154.67426929777778-149.39535587555554 154.67426929777778-70.62846691555555 0-129.62795406222222-51.12768853333333-145.10609294222223-119.44037262222221L441.3575623111111 81.78626218666682C425.80258019555555 149.99299413333335 366.88692224 201.0880830577778 296.28756309333335 201.0880830577778L296.28756309333335 201.0880830577778zM695.2972982044445 308.33479338666666c-20.138811164444444 0-36.479692799999995 16.883442346666666-36.479692799999995 37.768567466666674L658.8176065422222 497.13222200888885c0 20.85601735111111 16.34088049777778 37.768567466666674 36.479692799999995 37.768567466666674 20.14230414222222 0 36.447092053333336-16.912550115555558 36.447092053333336-37.768567466666674l0-113.28707242666665 109.38784881777778 0c20.14230414222222 0 36.479692799999995-16.912550115555558 36.479692799999995-37.768567466666674 0-20.885125119999998-16.337388657777776-37.7790464-36.479692799999995-37.7790464L695.2972982044445 308.29753571555557 695.2972982044445 308.33479338666666zM695.2972982044445 308.33479338666666"  horiz-adv-x="1024" />

    
    <glyph glyph-name="gengduo" unicode="&#58928;" d="M279.063063-123.38738699999999c-13.837838 0-23.063063 4.612613-32.288288 13.837838-18.45045 18.45045-18.45045 46.126126 0 64.576577l428.972973 428.972973L246.774775 808.36036c-18.45045 18.45045-18.45045 46.126126 0 64.576577s46.126126 18.45045 64.576577 0l461.261261-461.261261c18.45045-18.45045 18.45045-46.126126 0-64.576577l-461.261261-461.261261C306.738739-118.77477499999998 292.900901-123.38738699999999 279.063063-123.38738699999999z"  horiz-adv-x="1024" />

    
    <glyph glyph-name="p-share" unicode="&#58968;" d="M91.986-82.785c-40.977 0-74.316 33.338-74.316 74.304v718.204c0 40.969 33.338 74.305 74.316 74.305h371.493v-74.316h-321.966c-27.305 0-49.516-22.209-49.516-49.514v-619.165c0-27.305 22.211-49.516 49.516-49.516h668.688c27.327 0 49.536 22.211 49.536 49.516v198.124h74.285v-247.639c0-40.966-33.316-74.304-74.285-74.304l-767.751 0zM275.446 252.801l5.371 14.857c88.223 243.591 322.093 413.813 568.73 413.94h10.532l-114.294 114.315c-7.013 7.002-10.891 16.327-10.891 26.27 0 9.912 3.878 19.236 10.891 26.26 7.013 7.013 16.329 10.881 26.262 10.881 9.889 0 19.225-3.857 26.26-10.87l199.894-199.904c7.055-7.045 10.914-16.403 10.87-26.345 0-9.871-3.878-19.163-10.914-26.156l-1.982-1.96-4.603-2.163-193.051-193.586c-6.928-6.947-16.179-10.785-26.048-10.785-9.87 0-19.12 3.837-26.048 10.785-6.97 6.961-10.785 16.211-10.763 26.058 0 9.856 3.835 19.107 10.763 26.056l153.172 153.139-9.272 0.832c-11.894 1.065-24.022 1.597-36.022 1.597-208.463 0-424.96-158.318-503.582-368.272l-6.692-17.905-68.581 32.954z"  horiz-adv-x="1024" />

    
    <glyph glyph-name="iconquxiaoxuanzejigou01" unicode="&#58984;" d="M953.0005333333334 570c-24 57.00053333333334-60 108-102 153.00053333333332-45.00053333333334 45.00053333333334-96 78-153.00053333333332 102-57.00053333333334 27.000533333333333-120 39.00053333333334-186 39.00053333333334-66.00106666666665 0-129.00053333333332-12-186-39.00053333333334-57.00053333333334-24-108-60-153.00053333333332-102-45.00053333333334-45.00053333333334-78-96-102-153.00053333333332-27.000533333333333-57.00053333333334-39.00053333333334-120-39.00053333333334-186 0-66.00106666666665 12-129.00053333333332 39.00053333333334-186 24-57.00053333333334 60-108 102-153.00053333333332 45.00053333333334-45.00053333333334 96-78 153.00053333333332-102 60-24 123.00053333333332-39.00053333333334 186-39.00053333333334 66.00106666666665 0 129.00053333333332 12 186 39.00053333333334 57.00053333333334 24 108 60 153.00053333333332 102 45.00053333333334 45.00053333333334 78 96 102 153.00053333333332 24 60 39.00053333333334 123.00053333333332 39.00053333333334 186 0 66.00106666666665-12 129.00053333333332-39.00053333333334 186zM812.0010666666667 83.9989333333333c-81.0016-81.0016-186-123.00053333333332-300.00106666666665-123.00053333333332s-219.00053333333332 45.00053333333334-300.00106666666665 123.00053333333332c-81.0016 81.0016-123.00053333333332 186-123.00053333333332 300.00106666666665 0 114 45.00053333333334 219.00053333333332 123.00053333333332 300.00106666666665 81.0016 81.0016 186 123.00053333333332 300.00106666666665 123.00053333333332 114 0 219.00053333333332-45.00053333333334 300.00106666666665-123.00053333333332 81.0016-81.0016 123.00053333333332-186 123.00053333333332-300.00106666666665 0-114-45.00053333333334-219.00053333333332-123.00053333333332-300.00106666666665z"  horiz-adv-x="1024" />

    
    <glyph glyph-name="sousuo" unicode="&#58912;" d="M980.6912224-10.305319469999972L760.86259627 209.52330667c52.6104256 68.328064 84.1548512 153.683568 84.1548512 246.57044053 0 223.75803627-181.4077344 405.16577067-405.16577067 405.16577067-223.75803627 0-405.16577067-181.4077344-405.16577067-405.16577067s181.4077344-405.16577067 405.16577067-405.16577067c92.88687253 0 178.24237653 31.65357547 246.57044053 84.1548512l219.82862614-219.82862613c10.80587627-10.80587627 28.26991787-10.80587627 39.07579413 0l35.25553493 35.25553493C991.49709867-38.57523733000005 991.49709867-21.111195729999963 980.6912224-10.305319469999972zM439.8516768 133.55472533c-177.91492587 0-322.53902293 144.73324693-322.53902293 322.53902294s144.73324693 322.53902293 322.53902293 322.53902293S762.4998496 634.0086741299999 762.4998496 456.20289813 617.76660373 133.55472533 439.8516768 133.55472533z"  horiz-adv-x="1024" />

    
    <glyph glyph-name="iconfont" unicode="&#58936;" d="M8.062141629629707 228.34471822222235c0 9.942053925925928 3.8059425185185187 19.884107851851855 11.340155259259259 27.49599288888889L484.81469629629635 721.2531105185186c15.146097777777777 15.146097777777777 39.76821570370371 15.146097777777777 54.91431348148148 0s15.146097777777777-39.76821570370371 0-54.91431348148148l-465.41239940740735-465.41239940740735c-15.146097777777777-15.146097777777777-39.76821570370371-15.146097777777777-54.91431348148148 0C11.868084148148114 208.46061037037043 8.062141629629707 218.40266429629628 8.062141629629707 228.34471822222235zM473.474541037037 693.7571176296296c0 9.942053925925928 3.8059425185185187 19.884107851851855 11.340155259259259 27.49599288888889 15.146097777777777 15.146097777777777 39.76821570370371 15.146097777777777 54.91431348148148 0L1005.2190814814815 255.8407111111112c15.146097777777777-15.146097777777777 15.146097777777777-39.76821570370371 0-54.91431348148148s-39.76821570370371-15.146097777777777-54.91431348148148 0L484.81469629629635 666.338797037037C477.2804835555556 673.8730097777777 473.474541037037 683.8150637037037 473.474541037037 693.7571176296296z"  horiz-adv-x="1024" />

    
    <glyph glyph-name="receipt-address-address" unicode="&#59038;" d="M512-96C377.6-96 128 279.616 128 487.52 128 695.456 299.93600000000004 864 512 864s384-168.544 384-376.48C896 279.616 646.4-96 512-96zM512 800C335.264 800 192 653.92 192 473.72800000000007 192 293.53599999999994 400-32 512-32s320 325.536 320 505.72800000000007C832 653.92 688.7359999999999 800 512 800zM512 336.99199999999996c-88.352 0-160 71.648-160 160 0 88.352 71.648 160 160 160s160-71.648 160-160C672 408.64 600.352 336.99199999999996 512 336.99199999999996zM512 592.992c-53.024 0-96-42.976-96-96 0-53.024 42.976-96 96-96s96 42.976 96 96C608 550.0160000000001 565.024 592.992 512 592.992z"  horiz-adv-x="1024" />

    
    <glyph glyph-name="lianxi" unicode="&#59103;" d="M968.1112177777778 157.51964444444434c-26.13816888888888 25.20746666666667-58.6285511111111 49.40913777777778-81.28170666666665 65.27544888888889-30.255786666666665 21.185422222222222-62.03505777777778 40.83598222222222-89.49304888888888 55.338097777777776-44.729457777777775 23.60092444444444-64.22186666666667 26.62741333333333-76.20266666666666 26.62741333333333-15.91296 0-39.10200888888889-6.115555555555556-59.21564444444445-35.24039111111111-10.123946666666665-14.66936888888889-17.593457777777775-31.92376888888889-24.818346666666667-48.61269333333333l-0.06712888888888888-0.14563555555555557c-3.583999999999999-8.304640000000001-9.790577777777777-22.671359999999996-14.557866666666666-30.565262222222216-8.748373333333332 2.975288888888889-30.013440000000003 12.009244444444445-68.61824 38.30101333333333-37.693439999999995 25.67623111111111-78.62840888888888 58.93802666666667-109.53500444444444 89.00039111111111-30.09194666666667 30.93048888888888-63.39584 71.90072888888889-89.10506666666667 109.62830222222219-26.279253333333333 38.61390222222222-35.33027555555555 59.88807111111112-38.31352888888889 68.63303111111111 7.815395555555555 4.716088888888889 22.033066666666667 10.872604444444443 30.258062222222225 14.433848888888889l0.19569777777777775 0.08533333333333333c16.856177777777777 7.310222222222221 34.28693333333333 14.866204444444442 48.86414222222222 24.923022222222226 29.131662222222218 20.085191111111108 35.24721777777778 43.29358222222222 35.24721777777778 59.22474666666666 0 11.978524444444442-3.028764444444444 31.461831111111113-26.63424 76.1856-14.462293333333333 27.424995555555554-34.11626666666666 59.21109333333333-55.33582222222222 89.49418666666665-15.788942222222223 22.576924444444444-39.92803555555556 55.004728888888884-65.26407111111111 81.29080888888889-29.558328888888887 30.64945777777777-52.480000000000004 44.31758222222222-74.32760888888888 44.31758222222222-51.573191111111115 0-110.48277333333334-73.17617777777778-127.31278222222222-95.60860444444445-21.356088888888884-28.494506666666666-71.02464-102.3374222222222-71.02464-172.44501333333332 0-65.24359111111112 42.97955555555555-148.70300444444445 79.03914666666665-207.23143111111105 47.966435555555556-77.82286222222223 114.26929777777775-161.61792 186.70023111111112-235.9443911111111l23.56679111111111-23.573617777777777 0.11605333333333333-0.11264c74.47096888888889-72.56860444444445 158.33770666666666-138.9408711111111 236.15260444444445-186.8925155555555 58.51818666666667-36.06528 141.97077333333334-79.05507555555555 207.23370666666662-79.05507555555555 70.1394488888889 0 143.96416 49.676515555555554 172.45070222222225 71.03601777777777 22.426737777777774 16.81408 95.5995022222222 75.69521777777777 95.5995022222222 127.30481777777777C1012.4288 105.03736888888875 998.7606755555556 127.96131555555553 968.1112177777778 157.51964444444434zM923.7401600000001 58.196195555555505c-13.355235555555552-15.403235555555552-31.97383111111111-32.18545777777778-52.42197333333333-47.2576-46.532835555555565-34.28579555555555-93.98840888888888-54.75214222222221-126.9395911111111-54.75214222222221-36.77525333333334 0-100.24846222222219 25.585208888888886-169.79285333333334 68.44416-73.33091555555555 45.18001777777778-152.55210666666667 107.88067555555556-223.12504888888884 176.58652444444445l-23.184497777777775 23.175395555555554c-68.85603555555555 70.69696-131.68753777777778 150.0512711111111-176.92899555555553 223.45841777777778-42.856675555555555 69.56145777777778-68.44302222222223 133.04035555555555-68.44302222222223 169.80764444444446 0 32.96711111111111 20.47089777777778 80.41927111111112 54.75555555555556 126.93162666666667 15.15064888888889 20.54712888888889 31.931733333333334 39.164586666666665 47.25873777777778 52.42993777777778 11.880675555555554 10.300302222222223 19.80984888888889 14.665955555555554 23.522417777777775 16.365795555555554 10.323057777777777-6.600248888888888 40.894008888888884-33.664568888888894 86.14343111111111-99.25404444444445 18.40696888888889-26.69226666666667 35.29159111111111-54.22079999999999 47.5386311111111-77.51224888888889 11.88408888888889-22.623573333333336 15.961884444444445-34.591857777777776 17.34656-39.81312-1.3892266666666666-1.2310755555555557-3.820657777777777-3.097031111111111-7.921208888888888-5.535288888888889-8.94407111111111-5.335039999999999-21.35836444444444-10.689422222222221-32.41870222222222-15.458986666666666l-0.17066666666666666-0.07395555555555555c-14.871893333333333-6.4512-30.24896-13.123128888888889-42.71217777777777-21.39477333333333-27.262293333333332-18.038328888888888-32.60871111111111-39.124764444444445-32.29013333333333-53.6064 0.20138666666666666-10.412942222222222 0.7406933333333333-38.072320000000005 52.30136888888889-113.76639999999999 28.05304888888889-41.173902222222225 64.41187555555555-85.86467555555555 97.25610666666667-119.54517333333331l0.21845333333333333-0.21731555555555554c33.95242666666667-33.115022222222215 78.79566222222223-69.62403555555555 119.95477333333334-97.66684444444445 75.58030222222222-51.475342222222224 103.28632888888889-52.069262222222214 113.72430222222222-52.29226666666667l0.2821688888888889-0.004551111111111112c21.32423111111111 0 39.346631111111115 10.967039999999999 53.5597511111111 32.58595555555556 8.178346666666666 12.414293333333331 14.697813333333333 27.45457777777777 21.002239999999997 42.002204444444445l0.1979733333333333 0.4562488888888889c5.049457777777778 11.67815111111111 10.268444444444444 23.753386666666664 15.535217777777778 32.560924444444446 2.422328888888889 4.053902222222223 4.3064888888888895 6.498986666666666 5.558044444444445 7.914382222222221 5.197368888888889-1.386951111111111 17.169066666666666-5.474986666666667 39.77784888888889-17.356800000000003 23.300551111111112-12.242488888888888 50.82908444444443-29.127111111111113 77.52248888888889-47.5386311111111 65.6736711111111-45.312000000000005 92.71068444444444-75.87726222222221 99.26883555555557-86.15253333333334C938.4095288888889 77.97987555555574 934.05184 70.0939377777778 923.7401600000001 58.196195555555505z"  horiz-adv-x="1024" />

    
    <glyph glyph-name="yanzhengma" unicode="&#59101;" d="M946.7321269333333 668.0239562666667c-0.9594517333333333 30.171978666666664-25.9324896 58.67719573333333-55.477931733333335 63.83029333333333 0 0-114.54480213333333 18.109517866666664-178.81934719999998 40.9813664-80.24685333333333 28.5554272-159.65978026666667 91.32584853333333-159.65978026666667 91.32584853333333-24.7689216 17.686005333333334-62.76059733333333 16.589021866666666-85.73286613333333-2.5301589333333334 0 0-56.21798613333333-56.72445546666667-161.11369386666667-89.83591466666667-96.90900693333333-38.94457813333334-174.36264426666668-42.93192426666667-174.36264426666668-42.93192426666667-29.2288992-3.8094282666666666-54.3907712-30.791965866666665-54.9572736-60.95739519999999 0 0-3.9360448-155.07973439999998 1.0304010666666668-291.1843712 1.8763338666666667-243.4868416 290.1277738666667-484.2001130666667 435.78872533333333-484.2001130666667 143.37747839999997 0 391.1572938666667 167.7065152 430.13243413333333 480.66029226666666C953.1917813333333 558.9826314666667 946.7321269333333 668.0239562666667 946.7321269333333 668.0239562666667zM723.0805077333333 454.4198389333333L475.25157333333334 203.57065066666667c-10.559428266666666-10.686045866666666-28.47574613333333-11.919470933333335-40.617888-2.2660096l-129.41794453333333 102.84254613333333c-23.775633066666668 18.892142933333332-26.2555808 51.774381866666666-5.216405333333333 73.7806496 20.892910933333333 21.855637333333334 56.771390933333336 24.746 81.02620373333332 5.7632608l60.07762453333333-47.0218752 206.46771626666666 194.51549973333334c21.5063488 20.262008533333336 55.697328 19.6889568 76.6906592-0.3471050666666667-0.30016960000000004 0.31326826666666663-0.3831253333333333 0.7400554666666667-0.6931189333333333 1.0500490666666666l1.7497173333333333-1.7529919999999999c-0.30999360000000004 0.30999360000000004-0.7433301333333334 0.4027733333333333-1.0565973333333334 0.7029429333333332C744.450416 509.6205226666667 744.1698933333333 475.76573333333334 723.0805077333333 454.4198389333333z"  horiz-adv-x="1024" />

    
    <glyph glyph-name="xuanze" unicode="&#58903;" d="M902.8554666666666 650.1984c-83.97333333333333 134.74666666666667-233.48906666666664 224.42026666666666-403.9530666666667 224.42026666666666-262.68586666666664 0-475.63306666666665-212.9472-475.63306666666665-475.63306666666665 0-96.30933333333334 28.626133333333332-185.93173333333334 77.83146666666667-260.8256 83.9744-134.7456 233.48906666666664-224.4192 403.9530666666667-224.4192 262.68586666666664 0 475.63306666666665 212.9472 475.63306666666665 475.63306666666665 0 96.30826666666667-28.625066666666665 185.93066666666667-77.83146666666667 260.8245333333333zM796.2016 478.7328c-27.844266666666666-26.778666666666666-224.75840000000002-217.06666666666666-317.08799999999997-317.08799999999997-33.38666666666667-36.169599999999996-63.4176 0-63.4176 0s-171.1328 171.13386666666665-184.48 184.48106666666666c-27.620266666666666 31.20853333333333 15.445333333333334 83.89973333333334 58.0704 37.059200000000004 65.57333333333334-65.57653333333333 158.11946666666665-158.12266666666667 158.11946666666665-158.12266666666667s214.68053333333333 214.68053333333333 307.0122666666667 307.0122666666667c28.5952 27.584 79.46133333333334-17.10506666666667 41.78346666666666-53.34186666666667z"  horiz-adv-x="1024" />

    
    <glyph glyph-name="guanbi3" unicode="&#58900;" d="M512 889.294366189037c-279.0446592859654 0-505.294366189037-226.24970560853333-505.294366189037-505.294366189037S232.95666502668638-121.29304058184698 512-121.29304058184698c279.12679126660737 0 505.29304058184687 226.24838129588144 505.29304058184687 505.29304058184687S791.1267912666074 889.294366189037 512 889.294366189037zM755.3689204963555 199.18851754160983c17.06092830214321-17.148358827930863 17.06092830214321-44.93148159999999 0-62.12488000347655-8.66094778342716-8.531126307397532-19.891831067180245-12.864248824414814-31.12801289607901-12.864248824414814-11.236181828898767 0-22.3796345868642 4.333123811555555-31.040582370291357 12.864248824414814L514.0387268987258 316.2371585668741 334.8771285674667 137.0636375381332c-8.659623470775307-8.531126307397532-19.895805299674073-12.864248824414814-31.126688583427157-12.864248824414814-11.236181828898767 0-22.3796345868642 4.333123811555555-31.047205228088888 12.864248824414814-17.062252614795064 17.192074090824693-17.062252614795064 44.97652117554568 0 62.12488000347655l179.18544372622225 179.2053135941531L272.7098589082865 557.5978204172642c-17.06887547259259 17.148358827930863-17.06887547259259 44.932805912651844 0 62.12488000347655 17.148358827930863 17.111266422834564 44.93148159999999 17.111266422834564 62.16727095371851 0l179.16292264391106-179.18014388653825 190.37393605973332 190.39248161501234c17.149683140582717 17.111266422834564 44.932805912651844 17.111266422834564 62.16859526637037 0 17.06755115994074-17.19074977817284 17.06755115994074-44.97652117554568 0-62.12488000347655L576.1821524574816 378.39250682311115 755.3689204963555 199.18851754160983z"  horiz-adv-x="1024" />

    
    <glyph glyph-name="guanbi" unicode="&#58883;" d="M572.6814816 380.96592640000006L991.3837034666667 799.6681482666667c18.204444799999997 18.204444799999997 18.204444799999997 45.51111146666666 0 63.715555200000004-18.204444799999997 18.204444799999997-45.51111146666666 18.204444799999997-63.715555200000004 0L508.9659264 444.6814816 90.26370346666664 863.3837034666667C72.05925973333336 881.5881482666666 41.718518399999994 881.5881482666666 26.548148266666658 863.3837034666667 8.343703466666682 845.1792597333333 8.343703466666682 817.8725930666667 26.548148266666658 799.6681482666667l418.70222186666666-418.70222186666666L26.548148266666658-37.736296533333416c-18.204444799999997-18.204444799999997-18.204444799999997-45.51111146666666 0-63.715555200000004 18.204444799999997-18.204444799999997 45.51111146666666-18.204444799999997 63.715555200000004 0l418.70222186666666 418.70222186666666L927.6681482666667-101.45185173333334c18.204444799999997-18.204444799999997 45.51111146666666-18.204444799999997 63.715555200000004 0 18.204444799999997 18.204444799999997 18.204444799999997 45.51111146666666 0 63.715555200000004L572.6814816 380.96592640000006z"  horiz-adv-x="1024" />

    
    <glyph glyph-name="shangpu" unicode="&#59015;" d="M1012.57119875 462.756C991.23605844 416.244 934.05009781 389.004 875.93864 415.38 841.32992844 431.076 825.13373375 467.172 822.55208469 504.636 821.6996525 517.116 811.12950688 526.98 798.24561312 526.98 785.36172406 526.98 774.81593187 517.116 773.96349969 504.636 771.38185062 467.172 755.18565969 431.076 720.57694813 415.38 647.09737062 382.02 575.15216844 434.364 575.15216844 502.98 575.15216844 516.2280000000001 564.24104844 526.98 550.79699094 526.98 537.91310094 526.98 527.367305 517.116 526.49051937 504.636 523.90886938 467.172 507.71267469 431.076 473.07961063 415.38 399.64874375 382.044 327.70354344 434.388 327.70354344 502.98 327.70354344 516.2280000000001 316.81677781 526.98 303.34836406 526.98 289.36849062 526.98 278.1407525 515.364 279.06624969 501.372 280.57627063 478.14 275.58345875 454.62 258.48612313 438.54 194.18844781 378.08399999999995 111.79487562 407.34 87.65889219 464.172L86.27064688 468.348C84.97982281 471.828 83.88383937 475.404 83.03140812 479.052 80.13314187 491.148 81.05863906 503.748 84.88240156 515.5799999999999 103.41669312 573.252 179.38049937 809.268 179.38049937 809.268 180.257285 812.004 186.07817375 816.012 194.31022437 816.012L906.60180781 816.012C914.80950688 816.012 920.65475094 812.004 921.53153563 809.244L1014.98236062 522.54C1021.33906156 502.98 1021.16857438 481.5 1012.57119875 462.756M864.02895406-25.78800000000001L246.47901875-25.78800000000001C216.91183062-25.78800000000001 192.82455781-2.052000000000021 192.82455781 27.107999999999947L192.82455781 357.9C239.00197906 361.956 279.16367 386.772 303.34836406 423.012 329.84679875 383.34000000000003 375.36662938 357.05999999999995 427.07267656 357.05999999999995 478.77872469 357.05999999999995 524.29855531 383.34000000000003 550.79699094 423.012 577.29542563 383.34000000000003 622.83961062 357.05999999999995 674.52130156 357.05999999999995 726.22734688 357.05999999999995 771.74717844 383.34000000000003 798.24561312 423.012 824.01339594 384.468 867.80401062 358.764 917.683415 357.32399999999996L917.683415 27.107999999999947C917.683415-2.052000000000021 893.62050031-25.78800000000001 864.02895406-25.78800000000001M1069.53796063 495.852C1069.53796063 499.356 1069.53796063 506.868 1067.85745437 512.7239999999999 1067.76003219 513.0360000000001 1067.78438938 513.3720000000001 1067.68696719 513.684L967.95250625 823.764C960.32933844 847.452 935.09737062 864.012 906.60180781 864.012L194.31022437 864.012C165.76595375 864.012 140.53398781 847.452 132.93517062 823.764L34.46717938 513.5640000000001C32.88409344 505.668 31.25229594 493.884 32.37263469 487.764 41.21356438 430.812 80.49846969 382.26 134.37212656 364.428L134.37212656 27.107999999999947C134.37212656-33.827999999999975 184.66557312-83.38800000000003 246.47901875-83.38800000000003L864.02895406-83.38800000000003C925.8424025-83.38800000000003 976.16020531-33.827999999999975 976.16020531 27.107999999999947L976.16020531 366.34799999999996C1030.8862925 385.764 1069.53796063 434.292 1069.53796063 495.852"  horiz-adv-x="1118" />

    
    <glyph glyph-name="gerenziliao" unicode="&#59096;" d="M964.6331637333333 379.37956800000006l-36.888141866666665 33.22170346666667c-7.618855466666665 6.861336533333333-17.48298133333333 8.32944-22.0313728 3.2778549333333333L641.8010698666667 122.83588480000003c-4.548391466666667-5.050493866666667-28.292370133333336-81.72368853333334-26.1813568-83.62512853333332l10.2221472-9.205934933333333c2.111012266666666-1.9014389333333332 75.88947946666667 29.711354666666665 80.43787093333333 34.762939733333326l263.9114869333333 293.0421493333333C974.7406997333333 362.8614954666666 972.2520192 372.51823146666675 964.6331637333333 379.37956800000006zM930.7609098666667 178.94581119999998c-7.631954133333332 16.396913066666666-27.112429866666663 23.500567466666666-43.5060672 15.868614399999997-16.3958208-7.631954133333332-23.499476266666665-27.1102464-15.868614399999997-43.5060672 17.875931733333335-38.404272 28.441909333333335-78.79075733333335 29.7506496-113.72069973333333 1.1810314666666666-31.499274666666665-5.6159040000000005-45.720775466666666-8.5008096-49.26605333333333L166.337536-11.678396799999973c-2.3642464 2.4799488000000003-8.4364096 12.658434133333333-10.120634666666666 35.78679146666666-1.9298186666666668 26.48370986666667 2.6545930666666666 58.9380704 12.906210133333333 91.3836992 17.92177493333333 56.71572266666667 96.88499306666665 241.765504 360.5356064 241.765504 70.57483626666667 0 134.04710826666667-14.607900800000001 188.65290986666665-43.417654399999996 15.993047466666667-8.440775466666667 35.80207253333333-2.3151274666666666 44.2417568 13.681194666666666 8.438592 15.995230933333334 2.3140362666666667 35.8031648-13.681194666666666 44.2417568-34.260837333333335 18.076772266666666-71.27341333333334 31.387939199999998-110.72118506666668 39.8691008 23.8389408 11.810317866666665 45.85285013333333 27.552314666666664 65.21544 46.91381333333333 46.69332586666667 46.69332586666667 72.40969279999999 108.77608426666667 72.40969279999999 174.81126186666665s-25.716366933333333 128.1168448-72.40969279999999 174.8101696-108.77499306666667 72.40860053333334-174.8101696 72.40860053333334c-66.03517653333333 0-128.1168448-25.715275733333332-174.8101696-72.40860053333334s-72.40860053333334-108.77608426666667-72.40860053333334-174.8101696 25.715275733333332-128.117936 72.40860053333334-174.81126186666665c19.2807264-19.2807264 41.19093973333334-34.97360426666667 64.913088-46.766457599999995-112.51019733333332-23.429619199999998-185.03340799999998-80.2817824-228.84073706666666-129.8087104-73.37678506666666-82.9571136-99.5210304-181.2905632-99.5210304-245.6557045333333 0-28.953834666666665 5.081056-54.24341546666666 14.6952224-73.13555733333332 13.049201066666665-25.6432352 35.03145493333333-40.350464 60.310119466666656-40.350464L894.0146666666667-77.17108480000002c22.306437333333335 0 41.724696533333336 11.188148266666667 54.67675093333333 31.50254933333333 18.6705632 29.285658666666667 19.574346666666667 70.1436832 17.043096533333333 99.26124693333333C962.2241642666665 93.98792853333339 950.1311413333333 137.3335413333333 930.7609098666667 178.94581119999998zM346.82691839999995 633.3570709333333c0 100.20541759999998 81.52284800000001 181.7282656 181.7282656 181.7282656s181.7282656-81.52284800000001 181.7282656-181.7282656c0-100.20541759999998-81.5239392-181.7282656-181.7282656-181.7282656S346.82691839999995 533.1516533333333 346.82691839999995 633.3570709333333z"  horiz-adv-x="1024" />

    
    <glyph glyph-name="chenggong" unicode="&#59049;" d="M513.81783 894.977023c-282.477714 0-511.488511-228.988292-511.488511-511.483397 0-282.494082 229.010797-511.493626 511.488511-511.493626s511.488511 228.998521 511.488511 511.493626C1025.306342 665.988731 796.295544 894.977023 513.81783 894.977023zM513.81783-87.080919c-259.480168 0-470.569431 211.116883-470.569431 470.574545 0 259.457662 211.089263 470.565339 470.569431 470.565339s470.569431-211.106653 470.569431-470.565339C984.387261 124.035964 773.299021-87.080919 513.81783-87.080919zM769.682797 566.109347 441.23045 247.610565 326.165994 362.655584c-11.988268 11.988268-31.408464 11.988268-43.396731 0s-11.988268-31.408464 0-43.396731l136.423193-136.421147c5.993622-5.993622 13.845994-8.990945 21.698366-8.990945 7.692787 0 15.405011 2.877634 21.358737 8.651317l350.14969 339.536304c12.168312 11.807201 12.468044 31.22842 0.679257 43.395708C801.230386 577.617838 781.830649 577.897111 769.682797 566.109347z"  horiz-adv-x="1026" />

    
    <glyph glyph-name="fanzhuanjingtouxianxing" unicode="&#58965;" d="M650.3559104 257.5619231999999c8.174442666666668 18.6705632 12.687905066666668 39.29932373333334 12.687905066666668 60.970493866666665 0 84.28004373333333-68.3142848 152.59432853333334-152.5954208 152.59432853333334-29.14376 0-56.350060799999994-8.163527466666666-79.512256-22.33154346666667L383.7614506666667 495.96006719999997c35.722391466666664 25.5362656 79.4489472 40.56549546666667 126.68694506666667 40.56549546666667 120.407392 0 217.9931456-97.5966688 217.9931456-217.9920544 0-47.239089066666665-15.030321066666666-90.9874752-40.57641066666667-126.66729706666666l-0.084048 0.0851392c-1.6176426666666666-3.9163978666666663-4.002628266666666-7.618855466666666-7.2390048-10.812662399999999-12.773044266666666-12.774135466666667-33.35923626666667-12.881105066666667-46.19558933333334-0.0425696l-46.30146773333333 46.28072853333333c-12.752305066666665 12.771953066666667-12.837444266666667 33.37888426666667 0.0218304 46.235975466666666 12.773044266666666 12.774135466666667 33.379975466666664 12.859274666666666 46.23706773333333 0.0218304L650.3559104 257.5619231999999zM315.2561482666666 415.68155946666667c-14.604626133333333-29.2496384-22.8008992-62.23666453333333-22.8008992-97.1480512 0-120.40848319999999 97.607584-217.9931456 217.9931456-217.9931456 41.596987733333336 0 80.47061653333333 11.6662368 113.55151359999999 31.8889504l-48.19635733333334 48.176710400000005c-19.798109866666668-9.4100512-41.95828266666666-14.667934933333333-65.35515626666667-14.667934933333333-84.281136 0-152.5954208 68.3142848-152.5954208 152.5954208 0 10.687137066666665 1.0860693333333333 21.139595733333334 3.193806933333333 31.208929066666666l9.515928533333332-9.495190399999998c12.858183466666667-12.857092266666665 33.465114666666665-12.751213866666665 46.21741973333334 0 12.858183466666667 12.859274666666666 12.794874666666667 33.476029866666664 0.0218304 46.239250133333336l-46.28072853333333 46.27963733333333c-12.857092266666665 12.848359466666667-33.465114666666665 12.752305066666665-46.23815893333334-0.0218304C319.4279637333333 427.8804608 316.4262656 421.9087189333333 315.2561482666666 415.68155946666667zM946.3277162666666 645.5210442666666L729.1008224 645.5210442666666l-46.43026773333334 91.90217493333333c-10.8563232 21.522722133333332-39.21309333333333 38.89327573333333-63.353296 38.89327573333333L401.58062186666666 776.3164949333334c-24.163124266666667 0-52.433664-17.573578666666666-63.204848-39.24474773333333l-45.451167999999996-91.55070293333333L74.56907306666665 645.5210442666666c-24.097633066666667 0-43.70472533333333-19.436813866666668-43.70472533333333-43.41656213333333l0-567.1332138666667c0-23.843307733333333 19.56452266666667-43.428569599999996 43.70472533333333-43.428569599999996l871.7586431999999 0c24.119463466666666 0 43.70472533333333 19.436813866666668 43.70472533333333 43.428569599999996L990.0324426666666 602.1044810666667C990.0324426666666 625.9477888 970.4679189333333 645.5210442666666 946.3277162666666 645.5210442666666zM924.6347168 78.74148480000008c0-12.028622933333333-9.878315733333332-21.801061333333333-21.735569066666667-21.801061333333333L117.9976426666667 56.94042346666674c-12.006792533333334 0-21.735569066666667 9.7516992-21.735569066666667 21.801061333333333l0 479.5731317333333c0 12.037355733333333 9.878315733333332 21.808701866666667 21.735569066666667 21.808701866666667l218.0564544 0 32.46418453333333 65.39772586666666 22.735408 45.8135552c5.3648533333333335 10.813754666666666 19.436813866666668 19.584170666666665 31.549484800000002 19.584170666666665l175.62881493333333 0c12.071192533333335 0 26.16389333333333-8.578307200000001 31.570224-19.298190933333334l23.289902933333334-46.09953493333333 33.04051093333333-65.39772586666666 216.56542933333333 0c12.006792533333334 0 21.735569066666667-9.750606933333334 21.735569066666667-21.808701866666667L924.6336256 78.74148480000008z"  horiz-adv-x="1024" />

    
    <glyph glyph-name="shouqi1" unicode="&#58937;" d="M23.87742036 81.91330875999995l976.2394391 0L511.99809328 692.06224317 23.87742036 81.91330875999995z"  horiz-adv-x="1024" />

    
    <glyph glyph-name="liuyan" unicode="&#59043;" d="M212 444.10080000000005c0 33.1284 26.862 59.982 60.0024 59.982 33.1344 0 59.9964-26.8536 59.9964-59.982 0-33.1332-26.862-59.9868-59.9964-59.9868C238.86200000000002 384.114 212 410.9676 212 444.10080000000005L212 444.10080000000005 212 444.10080000000005zM451.9976 444.10080000000005c0 33.1284 26.868 59.982 60.0024 59.982 33.1368 0 60.0024-26.8536 60.0024-59.982 0-33.1332-26.8668-59.9868-60.0024-59.9868C478.8656 384.114 451.9976 410.9676 451.9976 444.10080000000005L451.9976 444.10080000000005 451.9976 444.10080000000005zM873.6344 24.19679999999994l-61.6284 0 0 59.988 68.1228 0c28.65 0 51.8688 26.8536 51.8688 59.988l0 595.8c0 33.1284-23.2236 64.03320000000001-51.8688 64.03320000000001L143.87720000000002 804.006c-28.6512 0-51.8688-30.904799999999998-51.8688-64.03320000000001l0-595.8c0-33.1404 23.2236-59.988 51.8688-59.988L608.42 84.1848c0.7020000000000001-0.006 1.3752 0.0624 2.0664 0l1.5216 0 0-0.3876c6.8016000000000005-0.9131999999999999 13.3968-3.8208 18.328799999999998-9.337200000000001l107.8596-120.82799999999999c10.9764-12.2712 9.9168-31.1136-2.3748-42.059999999999995-12.2964-10.964400000000001-31.1592-9.8928-42.138000000000005 2.3844l-98.43 110.2404L151.1288 24.19679999999994C85.74919999999997 24.19679999999994 32 82.3836 32 154.16039999999998l0 579.864C32 805.8012 85.74919999999997 864 151.1288 864l722.5056 0C939.008 864 992 805.8012 992 734.0244l0-579.8580000000001c0-71.7768-52.992-129.9756-118.3656-129.9756L873.6344 24.19679999999994 873.6344 24.19679999999994zM692 444.10080000000005c0 33.1284 26.862 59.982 60.0024 59.982 33.1368 0 59.9964-26.8536 59.9964-59.982 0-33.1332-26.8608-59.9868-59.9964-59.9868C718.862 384.114 692 410.9676 692 444.10080000000005L692 444.10080000000005 692 444.10080000000005zM692 444.10080000000005"  horiz-adv-x="1024" />

    
    <glyph glyph-name="hezuo" unicode="&#58907;" d="M33.38986666666665 378.4c3.2 9.6 10.4 16.8 19.2 19.2l590.4 160c13.6 3.2 27.2-0.8 36.8-12 10.4-11.2 13.6-28 8.8-44-4-14.399999999999999-14.399999999999999-24.8-27.2-28l-510.4-137.59999999999997 233.6-265.6c49.6-56 115.19999999999999-87.2 185.6-87.2 148 0 276 189.6 276 189.6 27.2 45.6 104-2.4 51.2-55.199999999999996 0 0-165.6-213.6-327.2-213.6-89.6 0-173.6 39.2-236 110.39999999999999l-294.4 334.4c-7.199999999999999 8-9.6 19.2-6.4 29.599999999999998zM1018.9909333333333 388.8c-3.2-9.6-10.4-16.8-19.2-19.2l-590.4-159.2c-13.6-3.2-27.2 0.8-36.8 12-10.4 11.2-13.6 28-8.8 44 4 14.399999999999999 14.399999999999999 24.8 27.2 28l510.4 137.59999999999997-233.6 265.6c-49.6 56-115.19999999999999 87.2-185.6 87.2-148 0-276-189.6-276-189.6-27.2-45.6-104 2.4-51.2 55.199999999999996 0 0 165.6 213.6 327.2 213.6 89.6 0 173.6-39.2 236-110.39999999999999l294.4-334.4c7.199999999999999-8 9.6-19.2 6.4-30.399999999999995z"  horiz-adv-x="1055" />

    
    <glyph glyph-name="tishi" unicode="&#59041;" d="M512.0030290625 864C246.93373718750001 864 32 649.0647478125 32 383.9969709375 32 118.93373718750001 246.93373718750001-96 512.0030290625-96c265.06323375 0 479.99697093749995 214.93373718750001 479.99697093749995 479.99697093749995C992 649.0647478125 777.2192346875 864 512.0030290625 864L512.0030290625 864zM565.2677018750001 107.02461187499989c-15.039757499999999-15.039757499999999-34.155244687499994-21.7781146875-54.518743125-21.7781146875-20.3650134375 0-39.4804996875 6.8973871875-54.518743125 21.7781146875-15.039757499999999 15.0382434375-23.18061375 32.7406284375-23.18061375 53.2646728125 0 19.109428124999997 8.1408553125 38.224914375000004 23.18061375 53.2646728125 15.0382434375 15.0382434375 34.1537296875 23.191215 54.518743125 23.191215 21.7781146875 0 39.478985625-8.152972499999999 54.518743125-23.191215 15.033699375-15.039757499999999 23.185156875-32.742143437500005 23.185156875-53.2646728125C588.45285875 139.76524031250005 580.30140125 122.0628553125 565.2677018750001 107.02461187499989L565.2677018750001 107.02461187499989zM584.3710718750001 562.592956875c-4.0696706250000005-20.524044375-9.543354375-40.893600937500004-13.6251421875-62.665656562500004-6.8928440625-23.186671875000002-13.6251421875-51.8515715625-20.5179853125-85.8523284375-6.8928440625-34.149185625-15.039757499999999-77.6993559375-23.191215-129.55547156249997L495.70920125000004 284.5195003125c-8.146914375 51.8561146875-16.2938278125 94.15827374999999-23.186671875000002 129.55547156249997-6.8913290625 35.409315-13.6251421875 64.07421468749999-19.109428124999997 87.2593715625-5.484285937499999 24.6012871875-10.9685728125 46.373343750000004-15.0382434375 64.07421468749999-4.07724375 17.702385-5.484285937499999 32.7406284375-5.484285937499999 43.70920125-1.4085571875 21.772055625 6.8913290625 39.4744415625 23.185156875 53.26012875 16.2938278125 15.0382434375 34.149185625 21.776599687500003 55.927300312499995 21.776599687500003 21.772055625 0 40.8875428125-6.8913290625 55.927300312499995-21.776599687500003 15.0382434375-15.033699375 23.179098749999998-32.736084375 23.179098749999998-53.26012875C591.109428125 597.99621375 588.45285875 583.110943125 584.3710718750001 562.592956875L584.3710718750001 562.592956875zM584.3710718750001 562.592956875"  horiz-adv-x="1024" />

    
    <glyph glyph-name="iconzidingyituxingwuquanxian" unicode="&#59033;" d="M512 896C229.23264 896 0 666.76736 0 384s229.23264-512 512-512 512 229.23264 512 512S794.76736 896 512 896zM512-64c-247.424 0-448 200.576-448 448 0 247.424 200.576 448 448 448s448-200.576 448-448C960 136.576 759.424-64 512-64zM680.01792 400.01024l-24.0128 0L656.00512 496.00512c0 79.52896-64.46592 143.99488-143.99488 143.99488-79.52384 0-143.99488-64.46592-143.99488-143.99488l0-95.99488-24.0128 0c-13.25056 0-24.0128-10.73664-24.0128-24.0128l0-239.98976c0-13.27616 10.73664-24.0128 24.0128-24.0128l336.01024 0c13.25056 0 24.0128 10.73664 24.0128 24.0128l0 239.98976C704.00512 389.2736 693.26848 400.01024 680.01792 400.01024zM608.01024 400.01024 416.02048 400.01024 416.02048 496.00512c0 53.02784 42.99264 95.99488 95.99488 95.99488 53.00224 0 95.99488-42.99264 95.99488-95.99488L608.01024 400.01024z"  horiz-adv-x="1024" />

    
    <glyph glyph-name="yonghuming" unicode="&#58938;" d="M926.2899996875-16.620000000000005C900.3699996875-81.05999999999995 830.2500003125001-96 764.0100003125-96L511.97-96 259.91-96C193.66999999999996-96 123.60999968750002-81.05999999999995 97.6899996875-16.620000000000005 74.3100003125 81.91999968749997 123.60999968750002 161.39999999999998 185.51000000000005 224.16000000000008 243.78999968750003 284.8800000000001 263.39000000000004 305.7400003125 370.1499996875 311.46000000000004L511.97 311.46000000000004 653.7699996875 311.46000000000004C760.5300003125 305.7400003125 780.1299996875 284.8800000000001 838.4100003125 224.16000000000008 900.3699996875 161.39999999999998 949.67 81.91999968749997 926.2899996875-16.620000000000005ZM511.97 373.0799999999999C374.75 373.0799999999999 263.4900003125 482.9800003125 263.4900003125 618.54 263.4900003125 754.0999996875 374.75 864 511.97 864 649.19 864 760.43 754.0999996875 760.43 618.54 760.43 482.9800003125 649.19 373.0799999999999 511.97 373.0799999999999Z"  horiz-adv-x="1024" />

    
    <glyph glyph-name="xialashuaxin" unicode="&#59027;" d="M990.6387850666667 378.05008853333334c-2.0433376-132.16640853333334-51.6630464-249.862448-152.24940586666668-344.2653098666667C743.3774453333333-55.38639680000006 629.0040117333334-98.57919679999998 498.9289685333333-95.23148373333333c-134.9574421333333 3.473237333333333-249.60921386666666 55.83813546666667-341.2483306666666 155.10265706666667-84.60968533333332 91.6489408-126.80155520000001 201.46306666666666-126.20448959999999 325.84252373333334 0.6396341333333333 133.28849706666665 49.07940266666667 248.58536213333335 144.71787306666664 341.6631104C274.02645973333335 822.5884906666668 393.05088746666667 868.1411711999999 529.4458698666666 863.0251861333334c132.5135136-4.970811733333333 245.02807679999995-57.34880853333333 334.9032864-154.92037226666667C948.3967050666665 616.8586464 989.360608 507.89154453333333 990.6387850666667 378.05008853333334zM944.8710741333334 378.4976138666666c-1.3294794666666665 118.06497599999997-39.03626666666666 216.89179520000002-115.60249173333334 299.5520138666667-81.16155306666666 87.62229866666667-182.6582464 134.81990933333333-301.9555552 139.24605013333334-125.21556693333332 4.645537066666666-233.85302719999999-38.37916693333333-322.59850666666665-126.5767008-84.28550186666666-83.76593493333333-127.13774506666668-187.10512533333335-127.48703359999998-305.8184682666667-0.3307328-112.4075936 38.2438176-211.65465066666664 114.90828053333333-294.37272 83.11320213333333-89.67436906666666 186.969776-137.1230304 309.08322453333324-140.01448426666667 118.17303679999999-2.7986741333333334 221.7578208 37.3651392 307.590016 118.802848C898.4964746666667 154.41375040000003 942.7087605333334 260.20669226666666 944.8710741333334 378.4976138666666zM537.6705226666667 207.49905493333335c11.188148266666667 12.524176 22.357739733333336 25.0658176 33.575358933333334 37.562705066666666 4.419591466666666 4.922785066666666 8.940694399999998 9.7538816 13.429051733333331 14.615541333333335 13.852564266666667 15.001941333333331 27.7509728 29.96131413333333 41.55332693333333 45.00800853333333 11.3584256 12.382278399999999 22.815089066666665 24.685965866666667 33.808945066666666 37.3880608 4.915144533333333 5.6781216 10.028946133333333 10.034404266666666 17.6663584 11.673877333333333 17.39456853333333 3.735204266666666 31.85402133333333-9.095691733333332 32.33538453333333-25.1007456 0.23795306666666666-7.897194666666666-2.5541728-14.420157866666667-7.949588266666666-20.2434528-15.656857599999999-16.900106666666666-31.082311466666667-34.01415253333333-46.580898133333335-51.06052373333333-11.176140799999999-12.291681066666666-22.310804266666665-24.621565866666668-33.486945066666664-36.91324693333333-15.499677866666667-17.04528-31.02773546666667-34.06436266666667-46.531779199999995-51.10527573333333-11.308215466666667-12.429213866666666-22.5880512-24.88353173333333-33.89626773333333-37.311654399999995-4.324628266666666-4.752506666666666-8.9941792-9.225582933333333-12.9815264-14.2433312-9.246322133333333-11.6367648-33.348321066666664-9.991834666666668-41.94736746666666 3.2723967999999997-3.4481322666666667 5.319009066666666-8.474612266666666 9.6239904-12.830894933333333 14.344842666666665-13.9769984 15.144932266666665-28.029312 30.221097599999997-41.9539168 45.415147733333335-15.43746133333333 16.844438399999998-30.782141866666667 33.774015999999996-46.136646400000004 50.693770666666666-10.652208 11.739368533333334-21.278219733333334 23.503842133333332-31.8703936 35.29669653333334-12.979342933333333 14.450721066666667-26.2130112 28.68968533333333-38.75137813333333 43.5148-7.2531946666666665 8.575032533333333-7.084007466666667 18.9390784-2.065168 28.457190399999998 4.3835712000000004 8.315250133333333 11.649863466666666 12.923674666666667 21.700641066666666 13.889675733333332 14.4583616 1.3906047999999998 21.8796512-8.4254944 30.183985066666665-17.04091306666667 5.083239466666667-5.2731648 9.520295466666665-11.1641344 14.4681856-16.5759232 9.955814400000001-10.889069866666667 20.137574400000002-21.57184 30.089022933333336-32.46527573333333 18.974007466666666-20.770660266666667 37.875973333333334-41.60681173333333 56.7539264-62.46479360000001 5.5405888-6.121281066666667 10.894526933333333-12.411749333333333 17.312704-19.741350399999998 0 8.007438933333333 0.09277973333333334 14.713779200000001-0.04693546666666667 21.415752533333333-0.054576 2.6011082666666665-0.9299807999999999 5.192392533333333-0.931072 7.788042666666667-0.04802666666666667 135.82302186666666 0.10478613333333334 271.6460448-0.26305813333333333 407.46906666666666-0.03820373333333334 14.131994666666666 8.307608533333333 21.13522986666667 19.993493333333333 23.191666133333335 7.8098730666666665 1.3742325333333334 16.0858272 1.0948010666666665 23.670845866666664-3.0442677333333332 6.724894933333332-3.6697119999999996 10.352038399999998-8.6197856 10.346580266666667-16.580289066666666-0.0862304-143.2508608-0.062216533333333324-286.5006304-0.062216533333333324-429.7514912 0-2.2343551999999995 0-4.468710399999999 0-6.703064533333333C536.7383594666667 207.93130026666677 537.2044405333332 207.71517760000006 537.6705226666667 207.49905493333335z"  horiz-adv-x="1024" />

    
    <glyph glyph-name="fanhui" unicode="&#58918;" d="M735.7034097777778-113.29551587555557c-11.209387804444445 0-22.55716352 4.290012728888889-31.137190115555555 12.731651413333333L255.91391345777777 349.7490909866666c-17.43682673777778 17.160050915555555-17.713601422222222 45.25271608888888-0.69193728 62.82792959999999L703.735894471111 864.6890154666667c17.160050915555555 17.57521351111111 45.39110286222221 17.990376106666666 62.966316373333335 0.8303251911111111 17.57521351111111-17.160050915555555 17.990376106666666-45.39110286222221 0.8303251911111111-62.966316373333335L349.87903203555555 382.1317688888888l416.96156671999995-419.1757664711111c17.57521351111111-17.298438826666665 17.713601422222222-45.39110286222221 0.5535505066666667-62.966316373333335C758.6757358933334-108.86711637333337 747.1895722666666-113.29551587555557 735.7034097777778-113.29551587555557L735.7034097777778-113.29551587555557zM735.7034097777778-113.29551587555557"  horiz-adv-x="1024" />

    
    <glyph glyph-name="yiwen" unicode="&#58959;" d="M1003.11545707 384.42380693c0-271.46775787-220.07150613-491.539264-491.539264-491.539264S20.03692907 112.95604906999995 20.03692907 384.42380693 240.1084352 875.96307093 511.57619307 875.96307093 1003.11545707 655.8915648 1003.11545707 384.42380693zM540.93447147 239.55880960000002c0.53939093 28.43360853 2.50431467 48.968992 5.93330026 61.64467947s8.70731093 23.84878507 15.79644907 33.59634986 22.23061227 24.88903893 45.46295147 45.42442347c34.4824928 30.55264427 57.63777493 56.48193813 69.54290453 77.82640747 11.82807253 21.3444704 17.7613728 44.65386453 17.7613728 69.92818346 0 43.72919467-16.87523093 80.98569813-50.5871648 111.80803734s-78.9051904 46.23350933-135.54123947 46.23350933c-53.47675947 0-96.4353952-14.37091627-128.99149226-43.07421973s-52.08975467-70.04376747-58.63950187-124.05991787l73.08747307-8.70731093c6.3185792 40.30020907 19.6107136 69.92818347 39.91493013 88.88392213s45.57853547 28.43360853 75.86148373 28.43360853c31.3232032 0 57.79188693-10.47959573 79.40605334-31.4002592 21.61416533-20.95919147 32.44051307-45.23178347 32.44051306-72.89483413 0-15.25705813-3.73720853-29.3582784-11.05751466-42.26513387-7.39736107-12.9068544-23.38645013-30.20589333-48.00579414-51.97417066-24.657872-21.69122133-41.68721493-38.25822933-51.16508373-49.58543894-12.9068544-15.52675413-22.26914027-30.9379232-28.0868576-46.23350933-7.89822507-20.26568853-11.82807253-44.3456416-11.82807253-72.2783872 0-4.7389344 0.115584-11.90512853 0.38527893-21.3829984L540.93447147 239.48175467zM549.25650347 96.96696107000002l0 80.98569813-81.02422614 0 0-80.98569813L549.25650347 96.96696107000002z"  horiz-adv-x="1024" />

    
    <glyph glyph-name="shanchu" unicode="&#59010;" d="M649.113994 372.765l148.1375 148.1375c8.925 8.925 9.15 23.825 0.0875 32.875-8.7875 8.8-23.775 9.025-32.8875-0.1l-148.125-148.125-148.13 148.125c-8.9375 8.95-23.8375 9.1625-32.9 0.1-8.775-8.775-9-23.775 0.1-32.875l148.1425-148.1375-148.1425-148.125c-8.925-8.9375-9.15-23.8375-0.1-32.8875 8.8-8.7875 23.7875-9.0125 32.9 0.1l148.13 148.125 148.125-148.125c8.9375-8.9375 23.8375-9.1625 32.8875-0.1 8.8 8.7875 9.0125 23.775-0.0875 32.8875L649.113994 372.765zM13.541494 350.965c-18.18 18.2375-17.9175 48.0875 0 66.0875L335.171494 739.875c9.075 9.1 26.9875 16.4875 39.575 16.4875l509.9425 0c76.925 0 139.3125-62.2125 139.3125-140.0875l0-464.5625c0-77.3625-62.05-140.075-139.3125-140.075L374.746494 11.6375c-12.7875 0-30.225 7.1-39.575 16.475L13.541494 350.965z"  horiz-adv-x="1025" />

    
    <glyph glyph-name="zhifu" unicode="&#59045;" d="M506.3382517333333 790.4179274666667c54.93325973333333 0 108.18666026666665-10.742805333333333 158.27899946666668-31.93042773333333 48.42012053333334-20.4803136 91.91963946666667-49.812908799999995 129.29241919999998-87.18568853333333 37.37277973333333-37.37277973333333 66.70537386666666-80.87229866666667 87.18568853333333-129.29241919999998 21.187623466666665-50.0923392 31.93042773333333-103.34573973333332 31.93042773333333-158.27899946666668s-10.742805333333333-108.18666026666665-31.93042773333333-158.27899946666668c-20.4803136-48.419029333333334-49.812908799999995-91.91963946666667-87.18568853333333-129.29241919999998-37.37277973333333-37.37277973333333-80.87229866666667-66.70537386666666-129.29241919999998-87.18568853333333-50.0923392-21.187623466666665-103.34573973333332-31.93042773333333-158.27899946666668-31.93042773333333s-108.18666026666665 10.742805333333333-158.27899946666668 31.93042773333333c-48.42012053333334 20.4803136-91.91963946666667 49.812908799999995-129.29241919999998 87.18568853333333-37.37277973333333 37.37277973333333-66.70537386666666 80.87229866666667-87.18568853333333 129.29241919999998-21.187623466666665 50.0923392-31.93042773333333 103.34573973333332-31.93042773333333 158.27899946666668s10.742805333333333 108.18666026666665 31.93042773333333 158.27899946666668c20.4803136 48.419029333333334 49.812908799999995 91.91963946666667 87.18568853333333 129.29241919999998 37.37277973333333 37.37277973333333 80.87229866666667 66.70537386666666 129.29241919999998 87.18568853333333C398.1515914666667 779.6751221333334 451.40389973333333 790.4179274666667 506.3382517333333 790.4179274666667M506.3382517333333 861.3671573333334c-263.7914197333333 0-477.63676373333334-213.84534506666662-477.63676373333334-477.63676373333334s213.84534506666662-477.63676373333334 477.63676373333334-477.63676373333334 477.63676373333334 213.84534506666662 477.63676373333334 477.63676373333334S770.1296704 861.3671573333334 506.3382517333333 861.3671573333334L506.3382517333333 861.3671573333334zM669.7255957333333 361.62370453333335c12.057002666666667 0 21.830532266666665 9.7735296 21.830532266666665 21.830532266666665l0 27.288165333333332c0 12.057002666666667-9.7735296 21.830532266666665-21.830532266666665 21.830532266666665l-122.49548266666667 0c-0.12115946666666666 0.8502997333333333-0.29034560000000004 1.6842250666666665-0.5064682666666667 2.500688l132.23844906666667 132.23844906666667c8.525914666666667 8.5248224 8.525914666666667 22.34791573333333 0 30.8727392l-19.294916266666668 19.296007466666666c-8.525914666666667 8.5248224-22.34791573333333 8.5248224-30.8727392 0L507.8456501333333 496.53202773333334l-120.94988053333333 120.94878933333331c-8.5248224 8.5248224-22.34791573333333 8.5248224-30.8727392 0l-19.296007466666666-19.296007466666666c-8.5248224-8.5248224-8.5248224-22.34791573333333 0-30.8727392l134.739136-134.739136-117.19175466666667 0c-12.057002666666667 0-21.830532266666665-9.7735296-21.830532266666665-21.830532266666665l0-27.288165333333332c0-12.057002666666667 9.7735296-21.830532266666665 21.830532266666665-21.830532266666665l122.25098026666664 0 0-67.4923648-122.25098026666664 0c-12.057002666666667 0-21.830532266666665-9.7735296-21.830532266666665-21.830532266666665l0-27.288165333333332c0-12.057002666666667 9.7735296-21.830532266666665 21.830532266666665-21.830532266666665l122.25098026666664 0 0-64.40007039999999c0-12.057002666666667 9.7735296-21.830532266666665 21.830532266666665-21.830532266666665l27.288165333333332 0c12.057002666666667 0 21.830532266666665 9.7735296 21.830532266666665 21.830532266666665l0 64.40007039999999 122.25098026666664 0c12.057002666666667 0 21.830532266666665 9.7735296 21.830532266666665 21.830532266666665l0 27.288165333333332c0 12.057002666666667-9.7735296 21.830532266666665-21.830532266666665 21.830532266666665l-122.25098026666664 0 0 67.4923648L669.7255957333333 361.62370453333335z"  horiz-adv-x="1024" />

    
    <glyph glyph-name="keshi1" unicode="&#58940;" d="M512.068110791111 820.6781735822221c-281.0584974222222 0-509.10547626666664-326.1714375111111-509.10547626666664-338.4011923911111 0-11.452006399999998 228.04581489777777-337.6234439111111 509.10547626666664-337.6234439111111 281.78385237333333 0 506.23199573333335 340.6820465777777 509.8261742933333 337.6234439111111C1025.62818048 480.00544199111107 793.853128248889 820.6781735822221 512.068110791111 820.6781735822221L512.068110791111 820.6781735822221zM938.8043696355555 482.3037599288889c-3.0388098844444444 2.8338938311111113-188.21411726222223-265.49070847999997-426.7129719466667-265.49070847999997-272.9992465066666 0-426.1075387733333 265.49070847999997-426.1075387733333 265.49070847999997s188.22808803555557 266.2172285155555 426.1075387733333 266.2172285155555C750.5890884266666 748.5209884444445 941.9642663822221 480.2126859377778 938.8043696355555 482.3037599288889L938.8043696355555 482.3037599288889zM509.8571150222222 614.5129563022223c-67.24386019555556 0-121.60013994666666-56.45550250666666-121.60013994666666-126.68461624888889 0-69.81811655111112 54.357442559999996-126.68927317333333 121.60013994666666-126.68927317333333 67.63972152888888 0 121.99832803555555 56.871156622222216 121.99832803555555 126.68927317333333C631.8554430577778 558.0574526577778 577.496836551111 614.5129563022223 509.8571150222222 614.5129563022223L509.8571150222222 614.5129563022223zM509.8571150222222 614.5129563022223"  horiz-adv-x="1024" />

    
    <glyph glyph-name="triangle-copy" unicode="&#58922;" d="M90.125 194.392l421.898 421.803 421.852-421.803h-843.75z"  horiz-adv-x="1024" />

    
    <glyph glyph-name="shuju" unicode="&#58980;" d="M660.61226667 78.15999999999997c0 11.46986667-8.27306667 20.7552-18.46186667 20.7552H383.76c-10.18666667 0-18.45653333-9.28533333-18.45653333-20.7552v-83.01226667H180.73173333v-62.25386666h664.43306667v62.25386666H660.61226667v83.01226667zM928.0288 834.50986667H97.88693333c-34.39253333 0-62.25706667-27.84426667-62.25706666-62.23786667V191.17866666999998c0-34.36906667 27.86453333-62.2592 62.25706666-62.2592h830.14293334c34.39253333 0 62.2592 27.88906667 62.2592 62.2592V772.272c0 34.39466667-27.86666667 62.23786667-62.26026667 62.23786667z m0-622.53866667c0-11.4496-9.30453333-20.7488-20.75413333-20.7488H118.64213333c-11.46986667 0-20.74986667 9.2992-20.74986666 20.7488V751.5381333299999c0 11.47413333 9.28 20.75413333 20.74986666 20.75413334h788.6336c11.44853333 0 20.75413333-9.28 20.75413334-20.75413334v-539.56693333h-0.00106667z m-212.60266667 39.70453333h112.27733334V578.56426667h-112.27733334v-326.88853334z m-179.6448 0h112.27733334V679.1456000000001h-112.27733334v-427.46986667z m-336.83413333 0h112.27733333V377.40053333000003h-112.27733333v-125.7248z m157.18826667 0h112.2784V478.00533333H356.13546667v-226.33066666z m0 0"  horiz-adv-x="1024" />

    
    <glyph glyph-name="dingdan4" unicode="&#59023;" d="M673.54624 863.8316088888889v-0.83968c-4.169955555555555 0-21.390222222222224 1.470008888888889-64.6189511111111 0.83968h-387.6829866666667c-71.36824888888889 0-129.23676444444445-53.72928-129.23676444444445-119.96842666666666v-719.8663111111111c0-66.26872888888889 57.86851555555555-119.99800888888888 129.23676444444445-119.99800888888888h581.53984c71.33866666666665 0 129.20718222222223 53.72928 129.20718222222223 119.99800888888888v599.8683022222222l-258.44508444444443 239.96529777777778zM705.8261333333334 143.9345777777778h-387.65226666666666c-17.84945777777778 0-32.30947555555555 13.409848888888888-32.30947555555555 29.99864888888889s14.460017777777777 29.99864888888889 32.30947555555555 29.99864888888889h387.65226666666666c17.87904 0 32.339057777777775-13.409848888888888 32.339057777777775-29.99864888888889s-14.460017777777777-29.99864888888889-32.339057777777775-29.99864888888889zM705.8261333333334 323.93216000000007h-387.65226666666666c-17.84945777777778 0-32.30947555555555 13.409848888888888-32.30947555555555 29.99864888888889 0 16.529635555555554 14.460017777777777 29.99864888888889 32.30947555555555 29.99864888888889h387.65226666666666c17.87904 0 32.339057777777775-13.44056888888889 32.339057777777775-29.99864888888889 0-16.589937777777777-14.460017777777777-29.99864888888889-32.339057777777775-29.99864888888889zM738.1663288888889 623.8663111111111c-35.66933333333333 0-64.6189511111111 26.87886222222222-64.6189511111111 59.998435555555545v119.99800888888888l193.82613333333333-179.96572444444445h-129.20718222222223z"  horiz-adv-x="1024" />

    
    <glyph glyph-name="yanjing1" unicode="&#59061;" d="M1000.8770139022222 520.86288384c10.624192284444444 15.935706453333333 7.082407253333333 37.184091022222226-7.082407253333333 49.57917525333333-15.935706453333333 12.39508536888889-37.184091022222226 8.8532992-49.57917525333333-7.082406115555555-1.7708930844444444-1.7708930844444444-198.31554048-233.7299035022222-432.04544398222225-233.7299035022222-226.6463323022222 0-432.04544398222225 233.7299035022222-433.8163370666666 235.49963150222223-12.39508536888889 14.165978453333333-35.413197937777774 15.935706453333333-49.57917639111111 3.5417861688888888-14.165978453333333-12.39508536888889-15.935706453333333-35.413197937777774-3.541785031111111-49.57917639111111 3.541785031111111-5.311514168888889 46.03739022222222-53.11979747555556 113.3231661511111-106.24075889777778l-90.30505358222221-93.84567466666665c-14.165978453333333-14.165978453333333-12.39508536888889-37.184091022222226 1.7708930844444444-49.57917639111111 3.541785031111111-7.082407253333333 12.39508536888889-10.624192284444444 21.248384568888888-10.624192284444444 8.8532992 0 17.706599537777777 3.541785031111111 24.789006791111106 10.624192284444444l97.38745969777779 100.92808078222222c46.03739022222222-31.872576853333335 100.92808078222222-61.97426175999999 161.1314494577778-83.22148124444445L317.3939029333333 161.4147288177778c-5.311514168888889-19.477491484444442 5.312678115555555-38.95498410666667 24.789006791111106-44.266497137777776h10.624192284444444c15.935706453333333 0 30.10168376888889 10.624192284444444 33.642304853333336 26.55989873777778l37.184091022222226 125.71825038222221c28.330791822222224-5.311514168888889 58.432475591111114-8.8532992 88.53416049777778-8.8532992s60.20336867555555 3.541785031111111 88.53416049777778 8.8532992l37.184091022222226-123.94735843555557c3.541785031111111-15.935706453333333 19.477491484444442-26.55989873777778 33.64346993777777-26.55989873777778 3.541785031111111 0 7.082407253333333 0 8.8532992 1.7708930844444444 19.477491484444442 5.312678115555555 30.10168376888889 24.789005653333334 24.79017073777778 44.266498275555556l-37.184091022222226 123.94735843555557c60.20336867555555 21.248384568888888 115.09405923555555 51.35006947555556 161.1314494577778 83.22148124444445l95.61656661333333-99.15835278222222c7.082407253333333-7.082407253333333 15.935706453333333-10.624192284444444 24.789005653333334-10.624192284444444 8.8532992 0 17.706599537777777 3.541785031111111 24.789005653333334 10.624192284444444 14.165978453333333 14.165978453333333 14.165978453333333 35.413197937777774 1.7708930844444444 49.57917639111111l-90.30505244444446 93.84567466666665c72.5996179911111 53.120961422222216 115.09638712888889 104.47103089777778 115.09638712888889 104.47103089777778z"  horiz-adv-x="1024" />

    
    <glyph glyph-name="shanchu3" unicode="&#58920;" d="M256 800s0 64 64 64h384c64 0 64-64 64-64v-64h-64v64H320v-64H256v64z m-128-128v-640s0-128 128-128h512c64 0 128 32.128 128 128v640h-64v-640s0-64-64-64H256s-64 0-64 64v640H128z m-64 64h896v-64H64v64zM384 512h64v-384H384V512z m192 0h64v-384H576V512z"  horiz-adv-x="1024" />

    
    <glyph glyph-name="shaixuan" unicode="&#58927;" d="M834.432 690.517333a122.538667 122.538667 0 0 1 30.634667 81.152c0 67.925333-55.466667 123.221333-123.648 123.221334H123.690667A123.605333 123.605333 0 0 1 0 771.669333c0-29.354667 10.368-57.258667 29.226667-79.488 1.365333-2.218667 2.986667-4.309333 4.906666-6.229333l248.832-283.306667v-296.149333c0-10.453333 4.693333-19.84 12.074667-26.154667l1.28-1.194666 221.013333-199.04a34.005333 34.005333 0 0 1 55.552 30.08V393.813333l257.92 292.394667a35.242667 35.242667 0 0 1 3.626667 4.309333zM781.653333 736.554667c-0.853333-1.024-1.749333-2.048-2.56-3.157334l-256.64-291.072a69.802667 69.802667 0 0 1-19.712-48.554666v-412.074667l-149.632 141.397333v279.466667c0 18.090667-7.04 35.498667-19.626666 48.512l-247.04 281.472a78.848 78.848 0 0 1-3.669334 4.778667 52.224 52.224 0 0 0-12.629333 34.346666c0 29.397333 24.021333 53.333333 53.546667 53.333334h617.685333c29.525333 0 53.546667-23.936 53.546667-53.333334 0-13.098667-4.650667-25.258667-13.269334-35.114666z m-161.237333-387.413334c0-18.944 15.402667-34.304 34.474667-34.304h333.568a34.346667 34.346667 0 0 1 34.432 34.304 34.346667 34.346667 0 0 1-34.432 34.304h-333.568a34.389333 34.389333 0 0 1-34.474667-34.304z m368.042667-131.370666h-333.568a34.389333 34.389333 0 1 1 0-68.650667h333.568a34.346667 34.346667 0 0 1 0 68.650667z m0-165.589334h-333.568a34.389333 34.389333 0 0 1-34.474667-34.346666c0-18.901333 15.402667-34.304 34.474667-34.304h333.568c18.986667 0 34.432 15.36 34.432 34.304a34.389333 34.389333 0 0 1-34.432 34.346666z"  horiz-adv-x="1024" />

    
    <glyph glyph-name="gengduo1" unicode="&#58880;" d="M4.541001349485782 560.1274288427892c0 10.600179164089505 4.045228574761307 21.202145879471445 12.133898172991492 29.294390580286485 16.179126747752804 16.17733919646038 42.40786686152773 16.17733919646038 58.5852060579881 0l436.74168197082713-436.7434695221195 436.7434695221195 436.7434695221195c16.179126747752804 16.17733919646038 42.40786686152773 16.17733919646038 58.58341850669567 0 16.17733919646038-16.179126747752804 16.17733919646038-42.40786686152773 0-58.58341850669567l-466.0342849998212-466.0342849998212c-16.17733919646038-16.17733919646038-42.4060793102353-16.17733919646038-58.58341850669567 0l-466.0342849998212 466.0342849998212c-8.08866959823019 8.08866959823019-12.133898172991492 18.694211416196975-12.133898172991492 29.294390580286485z"  horiz-adv-x="1024" />

    
    <glyph glyph-name="jian" unicode="&#58910;" d="M594.79927467 467.06141867H34.42824533v-163.75261867h955.14350934V467.06141867h-394.77248z"  horiz-adv-x="1024" />

    
    <glyph glyph-name="yanjing2" unicode="&#58921;" d="M512 53.58933333333334h-0.9102222222222223C356.8071111111111 57.34400000000005 225.05244444444446 146.20444444444433 141.65333333333336 220.15999999999997c-63.37422222222222 56.206222222222216-101.03466666666667 103.53777777777778-131.1857777777778 141.53955555555555-10.353777777777777 12.970666666666666-10.581333333333333 31.40266666666667-0.45511111111111113 44.60088888888889 28.785777777777778 37.888 89.54311111111112 111.38844444444446 174.07999999999998 177.37955555555558 108.08888888888889 84.53688888888888 218.22577777777778 128.68266666666665 327.11111111111114 131.29955555555554h1.7066666666666668c154.39644444444443-3.754666666666666 286.1511111111111-92.6151111111111 369.4364444444444-166.4568888888889 63.60177777777778-56.43377777777778 109.90933333333332-113.32266666666666 131.75466666666665-142.22222222222223 9.898666666666665-12.970666666666666 9.898666666666665-30.947555555555553 0-44.032000000000004-28.785777777777778-37.888-89.54311111111112-111.38844444444446-174.07999999999998-177.37955555555558-108.08888888888889-84.53688888888888-218.22577777777778-128.68266666666665-327.11111111111114-131.29955555555554h-0.9102222222222223zM85.44711111111116 384.5688888888889c25.48622222222222-31.40266666666667 57.571555555555555-68.26666666666667 104.56177777777778-109.90933333333332 74.06933333333333-65.64977777777777 190.0088888888889-144.61155555555555 321.99111111111114-148.13866666666667 198.54222222222222 5.233777777777777 361.472 177.6071111111111 426.78044444444447 257.93422222222216-23.324444444444445 28.671999999999997-59.16444444444445 69.40444444444444-104.78933333333333 109.68177777777778-74.06933333333333 65.64977777777777-190.0088888888889 144.61155555555555-321.99111111111114 148.13866666666667-198.31466666666668-5.233777777777777-361.1306666666666-177.26577777777777-426.55288888888884-257.70666666666665zM511.20355555555557 457.5004444444445c40.61866666666667 0 73.728-33.10933333333334 73.728-73.728s-32.995555555555555-73.728-73.728-73.728-73.728 33.10933333333334-73.728 73.728 33.10933333333334 73.728 73.728 73.728m0 72.81777777777778c-80.89599999999999 0-146.5457777777778-65.64977777777777-146.5457777777778-146.5457777777778S430.3075555555555 237.2266666666667 511.20355555555557 237.2266666666667s146.5457777777778 65.64977777777777 146.5457777777778 146.5457777777778-65.536 146.5457777777778-146.5457777777778 146.5457777777778z"  horiz-adv-x="1024" />

    
    <glyph glyph-name="mima1" unicode="&#58899;" d="M819.6490666666667 464.50666666666666H751.744V623.0912000000001c0 132.80746666666667-107.47946666666667 240.80746666666667-239.71413333333334 240.80746666666667-132.24533333333335 0-239.84746666666666-108-239.84746666666666-240.81706666666665v-158.5728h-67.83253333333333c-32.71146666666667 0-59.234133333333325-26.615466666666666-59.234133333333325-59.4688v-434.1845333333333c0-32.90453333333333 26.522666666666666-59.541333333333334 59.234133333333325-59.541333333333334h615.36c32.71146666666667 0 59.16266666666667 26.634666666666664 59.16266666666667 59.541333333333334V405.04c0 32.855466666666665-26.512 59.4688-59.234133333333325 59.4688zM545.2832 176.6304v-94.80533333333332a7.844266666666667 7.844266666666667 0 0 0-7.7674666666666665-7.8133333333333335h-50.9152a7.864533333333333 7.864533333333333 0 0 0-7.822933333333332 7.810133333333333V176.6293333333333c-23.917866666666665 12.285866666666667-40.483200000000004 36.9088-40.483200000000004 65.7696 0 40.840533333333326 33.008 74.05333333333333 73.67466666666665 74.05333333333333 40.72853333333333 0 73.7472-33.211733333333335 73.7472-74.04266666666668 0.0608-28.871466666666667-16.504533333333335-53.495466666666665-40.432-65.7696z m114.46506666666667 287.87626666666665H364.2933333333333V619.1584c0 81.80373333333334 66.3424 148.42239999999998 147.78879999999998 148.42239999999998 81.45706666666666 0 147.67680000000001-66.6176 147.67680000000001-148.42239999999998v-154.6517333333333z"  horiz-adv-x="1024" />

    
    <glyph glyph-name="qianbao" unicode="&#58892;" d="M959.418 607.709c0 74.131-60.095 134.225-134.225 134.225l-626.386 0c-74.131 0-134.225-60.095-134.225-134.225l-0-447.418c0-74.131 60.095-134.225 134.225-134.225h626.385c74.131 0 134.225 60.095 134.225 134.225v89.484l-223.708 0c-74.131 0-134.225 60.095-134.225 134.225s60.095 134.225 134.225 134.225h223.709l0 89.484zM668.597 383.997c0-37.065 30.047-67.113 67.113-67.113s67.113 30.047 67.113 67.113c0 37.065-30.047 67.113-67.113 67.113-37.065 0-67.113-30.047-67.113-67.113z"  horiz-adv-x="1024" />

    
    <glyph glyph-name="dingdan5" unicode="&#59166;" d="M810.9364903531459-113.13548306710106H217.04690876618292c-53.726223797412345 0-137.98434244582717 69.22797007454813-137.98434244582717 141.30273854957036V602.7876193621335c0 60.67299837218765 60.654452816908616 141.2828686816395 125.42742606885916 141.2828686816395h75.11232744612346v-136.88483413206907h467.91504998652823V744.0718123564247h65.71086752426666c64.79151880722961 0 135.6912711401876-61.39364064268641 135.6912711401876-141.76771080596538v-578.455397262222c0.0013243126518518518-83.48846256987653-73.20342202342718-136.98418735533826-137.98301813317528-136.98418735533826z m-29.326407867101228 565.5871729107753c0 9.438552326953086-7.487255954014811 17.192074090824686-16.695307974479007 17.192074090824686H263.0686259023013c-9.214676172799994 0-16.695307974479007-7.7535217638716-16.695307974479007-17.192074090824686v-34.28479495838023c0-9.457097882232098 7.48063180167901-17.099343725353084 16.695307974479007-17.099343725353084h501.8461486092641c9.214676172799994 0 16.695307974479007 7.642245843120985 16.695307974479007 17.099343725353084v34.28479495838023z m0-171.34316582937277c0 9.438552326953086-7.487255954014811 17.104643565037037-16.695307974479007 17.104643565037037H263.0686259023013c-9.214676172799994 0-16.695307974479007-7.667415550735797-16.695307974479007-17.104643565037037v-34.28479366384195c0-9.53790555022222 7.48063180167901-17.18544993848889 16.695307974479007-17.185451233027155h501.8461486092641c9.214676172799994 0 16.695307974479007 7.648869995456789 16.695307974479007 17.185451233027155v34.28479366384195z m0-171.4305963551605c0 9.438552326953086-7.487255954014811 17.111266422834564-16.695307974479007 17.111266422834564H263.0686259023013c-9.214676172799994 0-16.695307974479007-7.672715390419753-16.695307974479007-17.111266422834564v-34.278170806044436c0-9.457097882232098 7.48063180167901-17.104643565037037 16.695307974479007-17.104643565037037h501.8461486092641c9.214676172799994 0 16.695307974479007 7.648869995456789 16.695307974479007 17.104643565037037v34.278170806044436zM480.1354491979853 675.6015769574714H346.44448823877525V812.4983337870226h66.8487925557728c0 37.770103648711114 29.95432106666666 68.48878224877036 66.84216840343701 68.48878224877036h66.84216840343701c36.875925933827155 0 66.84216840343701-30.71867730552099 66.84216840343701-68.48878224877036h66.8487925557728v-136.89675682955064H480.1354491979853z m33.45817531227654 147.6388224619456c-23.138692280572833 0-41.80251787061728-19.22947667689876-41.80251787061728-42.84638951853827 0-23.603665831506177 18.67044974238025-42.75365915306667 41.80251787061728-42.75365915306667 23.04463889698765 0 41.74025705244444 19.148669008908637 41.74025705244444 42.75365915306667 0.0013243126518518518 23.61691284163951-18.694293842804935 42.84638951853827-41.74025705244444 42.84638951853827z"  horiz-adv-x="1024" />

    
    <glyph glyph-name="quxiaoshoucang1" unicode="&#58967;" d="M245-96c-9.6 0-19.2 4.8-24 9.6-14.399999999999999 9.6-19.2 24-19.2 43.199999999999996l48 288L48.19999999999999 456c-14.399999999999999 9.6-19.2 28.799999999999997-14.399999999999999 43.199999999999996 4.8 14.399999999999999 19.2 28.799999999999997 33.6 28.799999999999997l278.4 48 14.399999999999999 33.6L475.4 835.2c4.8 14.399999999999999 19.2 24 38.4 28.799999999999997 14.399999999999999 0 33.6-9.6 38.4-24L677 576l283.2-48c14.399999999999999-4.8 28.799999999999997-14.399999999999999 33.6-28.799999999999997 4.8-14.399999999999999 0-33.6-9.6-43.199999999999996l-201.6-206.4 48-288c4.8-14.399999999999999-4.8-33.6-14.399999999999999-43.199999999999996-14.399999999999999-14.399999999999999-28.799999999999997-14.399999999999999-43.199999999999996-9.6L513.8 48l-249.60000000000002-134.4c-4.8-4.8-14.399999999999999-9.6-19.2-9.6z m57.599999999999994 340.79999999999995l-43.199999999999996-273.59999999999997 235.2 129.60000000000002c14.399999999999999 4.8 28.799999999999997 4.8 38.4 0l235.2-129.60000000000002-43.199999999999996 273.59999999999997c0 14.399999999999999 4.8 24 14.399999999999999 33.6l192 196.79999999999998-264 38.4c-14.399999999999999 0-28.799999999999997 9.6-33.6 24L513.8 787.2 393.8 537.5999999999999c-4.8-9.6-19.2-19.2-28.799999999999997-19.2L101 480l192-196.79999999999998c9.6-9.6 14.399999999999999-24 9.6-38.4zM859.4 76.80000000000007L139.39999999999998 657.6c-9.6 4.8-14.399999999999999 24-4.8 33.6 9.6 9.6 24 9.6 33.6 4.8l720-580.8c9.6-9.6 9.6-24 4.8-33.6-9.6-14.399999999999999-24-14.399999999999999-33.6-4.8z"  horiz-adv-x="1027" />

    
    <glyph glyph-name="mima" unicode="&#59022;" d="M858.763636-125.67272700000012H165.23636399999998c-44.218182 0-81.454545 37.236364-81.454546 81.454545V465.45454500000005c0 44.218182 37.236364 81.454545 81.454546 81.454546h693.527272c44.218182 0 81.454545-37.236364 81.454546-81.454546v-509.672727c0-44.218182-37.236364-81.454545-81.454546-81.454545zM165.23636399999998 477.090909c-6.981818 0-11.636363999999999-4.654545-11.636363999999999-11.636363999999999v-509.672727c0-6.981818 4.654545-11.636363999999999 11.636363999999999-11.636363h693.527272c6.981818 0 11.636363999999999 4.654545 11.636363999999999 11.636363V465.45454500000005c0 6.981818-4.654545 11.636363999999999-11.636363999999999 11.636363999999999H165.23636399999998zM779.636364 495.709091h-6.981819c-18.618182 4.654545-30.254545 23.272727-27.927272 41.890909 2.327273 16.290909 4.654545 30.254545 4.654545 46.545455 0 132.654545-107.054545 239.70909099999997-239.70909099999997 239.70909-132.654545 0-239.70909099999997-107.054545-239.70909099999997-239.70909 0-16.290909 2.327273-30.254545 4.654546-44.218182 4.654545-18.618182-9.309091-37.236364-27.927273-41.890909-18.618182-4.654545-37.236364 9.309091-41.890909 27.927272-4.654545 18.618182-4.654545 39.563636-4.654545 58.181819C202.47272699999996 756.363636 342.10909100000003 893.672727 512 893.672727s309.527273-139.636364 309.527273-309.527272c0-20.945455-2.327273-41.890909-6.981818-60.509091-2.327273-16.290909-18.618182-27.927273-34.909091-27.927273zM512 114.03636400000005c-20.945455 0-37.236364 16.290909-37.236364 34.909091v121.018181c0 18.618182 16.290909 34.909091 34.909091 34.909091h2.327273c18.618182 0 34.909091-16.290909 34.909091-34.909091v-121.018181c0-18.618182-13.963636-34.909091-34.909091-34.909091z"  horiz-adv-x="1024" />

    
    <glyph glyph-name="tishi1" unicode="&#58915;" d="M512 820.90666667c-240.29866667 0-436.90666667-196.608-436.90666667-436.90666667s196.608-436.90666667 436.90666667-436.90666667 436.90666667 196.608 436.90666667 436.90666667-196.608 436.90666667-436.90666667 436.90666667m0-922.3585189c-266.9985189 0-485.45185223 218.45333333-485.45185223 485.45185223s218.45333333 485.45185223 485.45185223 485.45185223 485.45185223-218.45333333 485.45185223-485.45185223-218.45333333-485.45185223-485.45185223-485.45185223M512 68.45629667000003c-19.41807445 0-36.40888889 16.99081443-36.40888889 36.4088889v412.63407331c0 19.41807445 16.99081443 36.40888889 36.40888889 36.40888889s36.40888889-16.99081443 36.40888889-36.40888889v-412.63407331c0-19.41807445-16.99081443-36.40888889-36.40888889-36.4088889M461.02755555 658.28029667c0-26.69985223 21.84533333-48.54518557 48.54518557-48.54518556s48.54518557 21.84533333 48.54518443 48.54518556-21.84533333 48.54518557-48.54518443 48.54518443-48.54518557-21.84533333-48.54518557-48.54518443z"  horiz-adv-x="1024" />

    
    <glyph glyph-name="fanhui1" unicode="&#58923;" d="M509.184 241.152l-379.904 380.928c-13.056 13.056-34.305 13.056-47.617 0l-11.776-12.032c-13.056-13.056-13.056-34.561 0-47.617l415.488-416.512c13.056-13.056 34.305-13.056 47.617 0l415.488 416.768c13.056 13.056 13.056 34.561 0 47.617l-11.776 12.032c-13.056 13.056-34.305 13.056-47.617 0l-379.904-381.184z"  horiz-adv-x="1024" />

    
    <glyph glyph-name="bianji2" unicode="&#58908;" d="M802.3608888888889-124.92799999999988H146.43199999999996c-60.30222222222222 0-109.34044444444442 49.038222222222224-109.34044444444442 109.34044444444442V713.0453333333332c0 60.30222222222222 49.038222222222224 109.34044444444442 109.34044444444442 109.34044444444442H656.4977777777779c20.138666666666666 0 36.40888888888889-16.270222222222223 36.40888888888889-36.40888888888889s-16.270222222222223-36.40888888888889-36.40888888888889-36.40888888888889H146.43199999999996c-20.02488888888889 0-36.40888888888889-16.384-36.40888888888889-36.40888888888889v-728.7466666666667c0-20.138666666666666 16.384-36.40888888888889 36.40888888888889-36.40888888888889h655.815111111111c20.138666666666666 0 36.40888888888889 16.270222222222223 36.40888888888889 36.40888888888889V567.296c0 20.138666666666666 16.270222222222223 36.40888888888889 36.40888888888889 36.40888888888889s36.40888888888889-16.270222222222223 36.40888888888889-36.40888888888889v-582.9973333333332c0.22755555555555557-60.18844444444443-48.92444444444445-109.22666666666667-109.11288888888889-109.22666666666667M588.2311111111112 457.9555555555555c-9.329777777777776 0-18.659555555555553 3.527111111111111-25.71377777777778 10.695111111111112-14.222222222222223 14.222222222222223-14.222222222222223 37.319111111111106 0 51.54133333333333L924.672 882.2328888888889c14.222222222222223 14.222222222222223 37.319111111111106 14.222222222222223 51.54133333333333 0s14.222222222222223-37.319111111111106 0-51.54133333333333L614.0586666666668 468.6506666666666c-7.167999999999998-7.167999999999998-16.497777777777777-10.695111111111112-25.827555555555552-10.695111111111112m-150.30044444444445 0H219.3635555555556c-20.138666666666666 0-36.40888888888889 16.270222222222223-36.40888888888889 36.40888888888889s16.270222222222223 36.40888888888889 36.40888888888889 36.40888888888889h218.5671111111111c20.138666666666666 0 36.40888888888889-16.270222222222223 36.40888888888889-36.40888888888889 0.11377777777777778-20.02488888888889-16.270222222222223-36.40888888888889-36.40888888888889-36.40888888888889m218.68088888888883-218.5671111111111H219.3635555555556c-20.138666666666666 0-36.40888888888889 16.270222222222223-36.40888888888889 36.40888888888889s16.270222222222223 36.40888888888889 36.40888888888889 36.40888888888889h437.248c20.138666666666666 0 36.40888888888889-16.270222222222223 36.40888888888889-36.40888888888889s-16.270222222222223-36.40888888888889-36.40888888888889-36.40888888888889m0 0"  horiz-adv-x="1024" />

    
    <glyph glyph-name="jine_fuzhi" unicode="&#58897;" d="M385.0986530133334 631.92122368h240.65587996444444c74.45248 0 131.3297464888889 161.49822350222223 131.3297464888889 161.49822350222223 0 48.297241031111106-4.843563235555555 84.96993052444445-87.46090609777777 87.46090609777777-82.61734286222222 2.629362346666667-102.40675726222223-57.84597959111111-161.9133860977778-57.84597845333334-60.890504533333335 0-91.3357562311111 47.46691584-166.20339882666664 57.84597845333334-74.86764259555554 10.379063751111111-87.46090609777777-39.16366506666667-87.46090609777777-87.46090609777777-0.13838791111111112 0 56.600491804444445-161.49822350222223 131.05297066666665-161.49822350222223m253.8026939733333-49.95789141333333H385.0986530133334C104.1720092444445 581.9633322666667 35.116641848888946 29.935556835555644 35.116641848888946 29.935556835555644c0-72.51505493333335 58.814691555555555-145.30688568888888 131.3297464888889-145.30688568888888h691.2456112355555c72.51505493333335 0 131.19135971555556 72.79182961777776 131.19135857777778 145.30688568888888 0 0-69.05536739555555 552.0277765688888-349.98201116444443 552.027775431111m28.784601315555555-424.2961043911111c16.88327623111111 0 30.583639608888884-13.700363377777776 30.583639608888884-30.722027519999997 0-16.88327623111111-13.700363377777776-30.722027519999997-30.583639608888884-30.72202638222222h-124.41037141333332V15.820030862222211c0-16.88327623111111-13.700363377777776-30.722027519999997-30.583639608888884-30.722027519999997-16.88327623111111 0-30.583639608888884 13.700363377777776-30.583639608888884 30.722027519999997v80.40314311111112h-125.24069660444444c-16.88327623111111 0-30.583639608888884 13.700363377777776-30.583639608888884 30.72202638222222s13.700363377777776 30.722027519999997 30.583639608888884 30.722027519999997H482.10829767111113v38.88689038222222h-125.24069660444444c-16.88327623111111 0-30.583639608888884 13.700363377777776-30.583639608888884 30.722027519999997 0 16.88327623111111 13.700363377777776 30.722027519999997 30.583639608888884 30.72202638222222h84.69315697777778L354.79178922666665 412.0234712177778c-8.441637546666666 14.66907648-3.4596875377777776 33.489777777777775 11.209387804444445 41.931415324444444 14.66907648 8.441637546666666 33.351389866666665 3.4596875377777776 41.793028551111114-11.209388942222223L512.1383879111111 257.99817215999997h5.258724693333334L621.8796828444445 442.74549759999996c8.441637546666666 14.66907648 27.262339982222223 19.65102648888889 41.79302741333333 11.209388942222223 14.66907648-8.441637546666666 19.65102648888889-27.12395207111111 11.209388942222223-41.931415324444444L588.2515182933333 257.99817215999997h79.4344300088889c16.88327623111111 0 30.583639608888884-13.700363377777776 30.583639608888884-30.72202638222222 0-16.88327623111111-13.700363377777776-30.722027519999997-30.583639608888884-30.722027519999997h-124.41037141333332v-38.88689038222222h124.41037141333332m0 0z"  horiz-adv-x="1024" />

    
    </font>
</defs>
</svg>
